  0
SECTION
  2
HEADER
  9
$ACADVER
  1
AC1014
  9
$ACADMAINTVER
 70
     9
  9
$DWGCODEPAGE
  3
ANSI_1252
  9
$INSBASE
 10
0.0
 20
0.0
 30
0.0
  9
$EXTMIN
 10
-2.645
 20
-0.877
 30
0.0
  9
$EXTMAX
 10
2.645
 20
0.75
 30
0.0
  9
$LIMMIN
 10
0.0
 20
0.0
  9
$LIMMAX
 10
12.0
 20
9.0
  9
$ORTHOMODE
 70
     0
  9
$REGENMODE
 70
     1
  9
$FILLMODE
 70
     1
  9
$QTEXTMODE
 70
     0
  9
$MIRRTEXT
 70
     1
  9
$DRAGMODE
 70
     2
  9
$LTSCALE
 40
1.0
  9
$OSMODE
 70
    37
  9
$ATTMODE
 70
     1
  9
$TEXTSIZE
 40
0.1377952756
  9
$TRACEWID
 40
0.05
  9
$TEXTSTYLE
  7
STANDARD
  9
$CLAYER
  8
0
  9
$CELTYPE
  6
BYLAYER
  9
$CECOLOR
 62
   256
  9
$CELTSCALE
 40
1.0
  9
$DELOBJ
 70
     1
  9
$DISPSILH
 70
     0
  9
$DIMSCALE
 40
1.0
  9
$DIMASZ
 40
0.13
  9
$DIMEXO
 40
0.0393700787
  9
$DIMDLI
 40
0.38
  9
$DIMRND
 40
0.0
  9
$DIMDLE
 40
0.0
  9
$DIMEXE
 40
0.0393700787
  9
$DIMTP
 40
0.0
  9
$DIMTM
 40
0.0
  9
$DIMTXT
 40
0.1377952756
  9
$DIMCEN
 40
0.09
  9
$DIMTSZ
 40
0.0
  9
$DIMTOL
 70
     0
  9
$DIMLIM
 70
     0
  9
$DIMTIH
 70
     1
  9
$DIMTOH
 70
     1
  9
$DIMSE1
 70
     0
  9
$DIMSE2
 70
     0
  9
$DIMTAD
 70
     1
  9
$DIMZIN
 70
     0
  9
$DIMBLK
  1

  9
$DIMASO
 70
     1
  9
$DIMSHO
 70
     1
  9
$DIMPOST
  1

  9
$DIMAPOST
  1

  9
$DIMALT
 70
     0
  9
$DIMALTD
 70
     2
  9
$DIMALTF
 40
25.4
  9
$DIMLFAC
 40
1.0
  9
$DIMTOFL
 70
     0
  9
$DIMTVP
 40
0.0
  9
$DIMTIX
 70
     0
  9
$DIMSOXD
 70
     0
  9
$DIMSAH
 70
     0
  9
$DIMBLK1
  1

  9
$DIMBLK2
  1

  9
$DIMSTYLE
  2
STANDARD
  9
$DIMCLRD
 70
     0
  9
$DIMCLRE
 70
     0
  9
$DIMCLRT
 70
     0
  9
$DIMTFAC
 40
1.0
  9
$DIMGAP
 40
0.06
  9
$DIMJUST
 70
     0
  9
$DIMSD1
 70
     0
  9
$DIMSD2
 70
     0
  9
$DIMTOLJ
 70
     1
  9
$DIMTZIN
 70
     0
  9
$DIMALTZ
 70
     0
  9
$DIMALTTZ
 70
     0
  9
$DIMFIT
 70
     3
  9
$DIMUPT
 70
     0
  9
$DIMUNIT
 70
     2
  9
$DIMDEC
 70
     3
  9
$DIMTDEC
 70
     3
  9
$DIMALTU
 70
     2
  9
$DIMALTTD
 70
     2
  9
$DIMTXSTY
  7
STANDARD
  9
$DIMAUNIT
 70
     0
  9
$LUNITS
 70
     2
  9
$LUPREC
 70
     2
  9
$SKETCHINC
 40
0.1
  9
$FILLETRAD
 40
0.5
  9
$AUNITS
 70
     0
  9
$AUPREC
 70
     2
  9
$MENU
  1
.
  9
$ELEVATION
 40
0.0
  9
$PELEVATION
 40
0.0
  9
$THICKNESS
 40
0.0
  9
$LIMCHECK
 70
     0
  9
$CHAMFERA
 40
0.5
  9
$CHAMFERB
 40
0.5
  9
$CHAMFERC
 40
1.0
  9
$CHAMFERD
 40
0.0
  9
$SKPOLY
 70
     0
  9
$TDCREATE
 40
2456417.526650752
  9
$TDUPDATE
 40
2456417.526650764
  9
$TDINDWG
 40
0.0000000116
  9
$TDUSRTIMER
 40
0.0000000116
  9
$USRTIMER
 70
     1
  9
$ANGBASE
 50
0.0
  9
$ANGDIR
 70
     0
  9
$PDMODE
 70
     0
  9
$PDSIZE
 40
-1.0
  9
$PLINEWID
 40
0.0
  9
$COORDS
 70
     1
  9
$SPLFRAME
 70
     0
  9
$SPLINETYPE
 70
     6
  9
$SPLINESEGS
 70
     8
  9
$ATTDIA
 70
     0
  9
$ATTREQ
 70
     1
  9
$HANDLING
 70
     1
  9
$HANDSEED
  5
B7
  9
$SURFTAB1
 70
     6
  9
$SURFTAB2
 70
     6
  9
$SURFTYPE
 70
     6
  9
$SURFU
 70
     6
  9
$SURFV
 70
     6
  9
$UCSNAME
  2

  9
$UCSORG
 10
0.0
 20
0.0
 30
0.0
  9
$UCSXDIR
 10
1.0
 20
0.0
 30
0.0
  9
$UCSYDIR
 10
0.0
 20
1.0
 30
0.0
  9
$PUCSNAME
  2

  9
$PUCSORG
 10
0.0
 20
0.0
 30
0.0
  9
$PUCSXDIR
 10
1.0
 20
0.0
 30
0.0
  9
$PUCSYDIR
 10
0.0
 20
1.0
 30
0.0
  9
$USERI1
 70
     0
  9
$USERI2
 70
     0
  9
$USERI3
 70
     0
  9
$USERI4
 70
     0
  9
$USERI5
 70
     0
  9
$USERR1
 40
0.0
  9
$USERR2
 40
0.0
  9
$USERR3
 40
0.0
  9
$USERR4
 40
0.0
  9
$USERR5
 40
0.0
  9
$WORLDVIEW
 70
     1
  9
$SHADEDGE
 70
     3
  9
$SHADEDIF
 70
    70
  9
$TILEMODE
 70
     1
  9
$MAXACTVP
 70
    64
  9
$PINSBASE
 10
0.0
 20
0.0
 30
0.0
  9
$PLIMCHECK
 70
     0
  9
$PEXTMIN
 10
1.0000000000E+20
 20
1.0000000000E+20
 30
1.0000000000E+20
  9
$PEXTMAX
 10
-1.0000000000E+20
 20
-1.0000000000E+20
 30
-1.0000000000E+20
  9
$PLIMMIN
 10
0.0
 20
0.0
  9
$PLIMMAX
 10
12.0
 20
9.0
  9
$UNITMODE
 70
     0
  9
$VISRETAIN
 70
     1
  9
$PLINEGEN
 70
     0
  9
$PSLTSCALE
 70
     1
  9
$TREEDEPTH
 70
  3020
  9
$PICKSTYLE
 70
     1
  9
$CMLSTYLE
  2
STANDARD
  9
$CMLJUST
 70
     0
  9
$CMLSCALE
 40
1.0
  9
$PROXYGRAPHICS
 70
     1
  9
$MEASUREMENT
 70
     0
  0
ENDSEC
  0
SECTION
  2
CLASSES
  0
CLASS
  1
ACDBDICTIONARYWDFLT
  2
AcDbDictionaryWithDefault
  3
ObjectDBX Classes
 90
        0
280
     0
281
     0
  0
CLASS
  1
VISUALSTYLE
  2
AcDbVisualStyle
  3
ObjectDBX Classes
 90
     4095
280
     0
281
     0
  0
CLASS
  1
DICTIONARYVAR
  2
AcDbDictionaryVar
  3
ObjectDBX Classes
 90
        0
280
     0
281
     0
  0
CLASS
  1
XRECORD
  2
AcDbXrecord
  3
AutoCAD 2000
 90
        0
280
     0
281
     0
  0
CLASS
  1
LWPOLYLINE
  2
AcDbPolyline
  3
AutoCAD 2000
 90
        0
280
     0
281
     1
  0
CLASS
  1
HATCH
  2
AcDbHatch
  3
AutoCAD 2000
 90
        0
280
     0
281
     1
  0
CLASS
  1
ACDBPLACEHOLDER
  2
AcDbPlaceHolder
  3
ObjectDBX Classes
 90
        0
280
     0
281
     0
  0
CLASS
  1
LAYOUT
  2
AcDbLayout
  3
ObjectDBX Classes
 90
        0
280
     0
281
     0
  0
ENDSEC
  0
SECTION
  2
TABLES
  0
TABLE
  2
VPORT
  5
8
330
0
100
AcDbSymbolTable
 70
     1
  0
VPORT
  5
29
330
8
100
AcDbSymbolTableRecord
100
AcDbViewportTableRecord
  2
*ACTIVE
 70
     0
 10
0.0
 20
0.0
 11
1.0
 21
1.0
 12
0.0
 22
-0.0635
 13
0.0
 23
0.0
 14
0.5
 24
0.5
 15
0.5
 25
0.5
 16
0.0
 26
0.0
 36
1.0
 17
0.0
 27
0.0
 37
0.0
 40
1.65954
 41
3.2513829133
 42
50.0
 43
0.0
 44
0.0
 50
0.0
 51
0.0
 71
     0
 72
   100
 73
     1
 74
     3
 75
     0
 76
     0
 77
     0
 78
     0
  0
ENDTAB
  0
TABLE
  2
LTYPE
  5
5
330
0
100
AcDbSymbolTable
 70
     6
  0
LTYPE
  5
14
330
5
100
AcDbSymbolTableRecord
100
AcDbLinetypeTableRecord
  2
BYBLOCK
 70
     0
  3

 72
    65
 73
     0
 40
0.0
  0
LTYPE
  5
15
330
5
100
AcDbSymbolTableRecord
100
AcDbLinetypeTableRecord
  2
BYLAYER
 70
     0
  3

 72
    65
 73
     0
 40
0.0
  0
LTYPE
  5
16
330
5
100
AcDbSymbolTableRecord
100
AcDbLinetypeTableRecord
  2
CONTINUOUS
 70
     0
  3
Solid line
 72
    65
 73
     0
 40
0.0
  0
LTYPE
  5
3B
330
5
100
AcDbSymbolTableRecord
100
AcDbLinetypeTableRecord
  2
HIDDEN
 70
     0
  3
Hidden __ __ __ __ __ __ __ __ __ __ __ __ __ __
 72
    65
 73
     2
 40
0.075
 49
0.05
 74
     0
 49
-0.025
 74
     0
  0
LTYPE
  5
3C
330
5
100
AcDbSymbolTableRecord
100
AcDbLinetypeTableRecord
  2
PHANTOM
 70
     0
  3
Phantom ______  __  __  ______  __  __  ______
 72
    65
 73
     6
 40
0.5
 49
0.25
 74
     0
 49
-0.05
 74
     0
 49
0.05
 74
     0
 49
-0.05
 74
     0
 49
0.05
 74
     0
 49
-0.05
 74
     0
  0
LTYPE
  5
3D
330
5
100
AcDbSymbolTableRecord
100
AcDbLinetypeTableRecord
  2
CENTER
 70
     0
  3
Center ____ _ ____ _ ____ _ ____ _ ____ _ ____
 72
    65
 73
     4
 40
0.4
 49
0.25
 74
     0
 49
-0.05
 74
     0
 49
0.05
 74
     0
 49
-0.05
 74
     0
  0
LTYPE
  5
3E
330
5
100
AcDbSymbolTableRecord
100
AcDbLinetypeTableRecord
  2
CENTERX2
 70
     0
  3
Center (2x) ________  __  ________  __  _____
 72
    65
 73
     4
 40
0.8
 49
0.5
 74
     0
 49
-0.1
 74
     0
 49
0.1
 74
     0
 49
-0.1
 74
     0
  0
LTYPE
  5
3F
330
5
100
AcDbSymbolTableRecord
100
AcDbLinetypeTableRecord
  2
DOT2
 70
     0
  3
Dot (.5x) ........................................
 72
    65
 73
     2
 40
0.025
 49
0.0
 74
     0
 49
-0.025
 74
     0
  0
ENDTAB
  0
TABLE
  2
LAYER
  5
2
330
0
100
AcDbSymbolTable
 70
     1
  0
LAYER
  5
10
330
2
100
AcDbSymbolTableRecord
100
AcDbLayerTableRecord
  2
0
 70
     0
 62
     7
  6
CONTINUOUS
  0
ENDTAB
  0
TABLE
  2
STYLE
  5
3
330
0
100
AcDbSymbolTable
 70
     1
  0
STYLE
  5
11
330
3
100
AcDbSymbolTableRecord
100
AcDbTextStyleTableRecord
  2
STANDARD
 70
     0
 40
0.0
 41
1.0
 50
0.0
 71
     0
 42
0.2
  3
txt
  4

  0
ENDTAB
  0
TABLE
  2
VIEW
  5
6
330
0
100
AcDbSymbolTable
 70
     0
  0
ENDTAB
  0
TABLE
  2
UCS
  5
7
330
0
100
AcDbSymbolTable
 70
     0
  0
ENDTAB
  0
TABLE
  2
APPID
  5
9
330
0
100
AcDbSymbolTable
 70
     1
  0
APPID
  5
12
330
9
100
AcDbSymbolTableRecord
100
AcDbRegAppTableRecord
  2
ACAD
 70
     0
  0
ENDTAB
  0
TABLE
  2
DIMSTYLE
  5
A
330
0
100
AcDbSymbolTable
 70
     1
  0
DIMSTYLE
105
27
330
A
100
AcDbSymbolTableRecord
100
AcDbDimStyleTableRecord
  2
STANDARD
 70
     0
  3

  4

  5

  6

  7

 40
1.0
 41
0.18
 42
0.0625
 43
0.38
 44
0.18
 45
0.0
 46
0.0
 47
0.0
 48
0.0
140
0.18
141
0.09
142
0.0
143
25.4
144
1.0
145
0.0
146
1.0
147
0.09
 71
     0
 72
     0
 73
     1
 74
     1
 75
     0
 76
     0
 77
     0
 78
     0
170
     0
171
     2
172
     0
173
     0
174
     0
175
     0
176
     0
177
     0
178
     0
270
     2
271
     4
272
     4
273
     2
274
     2
340
11
275
     0
280
     0
281
     0
282
     0
283
     1
284
     0
285
     0
286
     0
287
     3
288
     0
  0
ENDTAB
  0
TABLE
  2
BLOCK_RECORD
  5
1
330
0
100
AcDbSymbolTable
 70
     1
  0
BLOCK_RECORD
  5
1F
330
1
100
AcDbSymbolTableRecord
100
AcDbBlockTableRecord
  2
*MODEL_SPACE
  0
BLOCK_RECORD
  5
1B
330
1
100
AcDbSymbolTableRecord
100
AcDbBlockTableRecord
  2
*PAPER_SPACE
  0
ENDTAB
  0
ENDSEC
  0
SECTION
  2
BLOCKS
  0
BLOCK
  5
20
330
1F
100
AcDbEntity
  8
0
100
AcDbBlockBegin
  2
*MODEL_SPACE
 70
     0
 10
0.0
 20
0.0
 30
0.0
  3
*MODEL_SPACE
  1

  0
ENDBLK
  5
21
330
1F
100
AcDbEntity
  8
0
100
AcDbBlockEnd
  0
BLOCK
  5
1C
330
1B
100
AcDbEntity
 67
     1
  8
0
100
AcDbBlockBegin
  2
*PAPER_SPACE
 70
     0
 10
0.0
 20
0.0
 30
0.0
  3
*PAPER_SPACE
  1

  0
ENDBLK
  5
1D
330
1B
100
AcDbEntity
 67
     1
  8
0
100
AcDbBlockEnd
  0
ENDSEC
  0
SECTION
  2
ENTITIES
  0
LWPOLYLINE
  5
64
330
1F
100
AcDbEntity
  8
0
  6
CONTINUOUS
 62
     7
100
AcDbPolyline
 90
       54
 70
   128
 43
0.0
 10
1.87
 20
0.22
 10
1.8960200976
 20
0.2181048959
 10
1.9216749301
 20
0.2124461868
 10
1.9466043598
 20
0.2031033085
 10
1.9704584322
 20
0.1902074146
 10
1.9929022885
 20
0.1739395351
 10
2.013620866
 20
0.1545280354
 10
2.0323233214
 20
0.1322454104
 10
2.0487471132
 20
0.1074044594
 10
2.0626616873
 20
0.0803538947
 10
2.0738717136
 20
0.0514734472
 10
2.082219828
 20
0.0211685348
 10
2.0875888412
 20
-0.0101354277
 10
2.089903384
 20
-0.0419990015
 10
2.0891309654
 20
-0.0739748917
 10
2.0852824283
 20
-0.1056142271
 10
2.0784117978
 20
-0.1364728605
 10
2.0686155226
 20
-0.1661176046
 10
2.0560311208
 20
-0.1941323121
 10
2.0408352498
 20
-0.2201237178
 10
2.0232412264
 20
-0.2437269594
 10
2.0034960321
 20
-0.2646106992
 10
1.9818768461
 20
-0.2824817752
 10
1.9586871544
 20
-0.2970893167
 10
1.9342524895
 20
-0.3082282658
 10
1.9089158605
 20
-0.315742256
 10
1.8830329381
 20
-0.3195258076
 10
1.8569670619
 20
-0.3195258076
 10
1.8310841395
 20
-0.315742256
 10
1.8057475105
 20
-0.3082282658
 10
1.7813128456
 20
-0.2970893167
 10
1.7581231539
 20
-0.2824817752
 10
1.7365039679
 20
-0.2646106992
 10
1.7167587736
 20
-0.2437269594
 10
1.6991647502
 20
-0.2201237178
 10
1.6839688792
 20
-0.1941323121
 10
1.6713844774
 20
-0.1661176046
 10
1.6615882022
 20
-0.1364728605
 10
1.6547175717
 20
-0.1056142271
 10
1.6508690346
 20
-0.0739748917
 10
1.650096616
 20
-0.0419990015
 10
1.6524111588
 20
-0.0101354277
 10
1.657780172
 20
0.0211685348
 10
1.6661282864
 20
0.0514734472
 10
1.6773383127
 20
0.0803538947
 10
1.6912528868
 20
0.1074044594
 10
1.7076766786
 20
0.1322454104
 10
1.726379134
 20
0.1545280354
 10
1.7470977115
 20
0.1739395351
 10
1.7695415678
 20
0.1902074146
 10
1.7933956402
 20
0.2031033085
 10
1.8183250699
 20
0.2124461868
 10
1.8439799024
 20
0.2181048959
 10
1.87
 20
0.22
  0
LWPOLYLINE
  5
65
330
1F
100
AcDbEntity
  8
0
  6
CONTINUOUS
 62
     7
100
AcDbPolyline
 90
       69
 70
   128
 43
0.0
 10
0.57
 20
0.55
 10
0.5884536719
 20
0.5480803793
 10
0.6067499036
 20
0.5423378949
 10
0.624732598
 20
0.5328215394
 10
0.6422483332
 20
0.5196125032
 10
0.6591476712
 20
0.5028234811
 10
0.6752864326
 20
0.4825977111
 10
0.6905269273
 20
0.4591077523
 10
0.7047391287
 20
0.4325540127
 10
0.7178017834
 20
0.4031630396
 10
0.7296034455
 20
0.3711855864
 10
0.7400434271
 20
0.3368944733
 10
0.7490326583
 20
0.3005822601
 10
0.7564944459
 20
0.2625587498
 10
0.7623651286
 20
0.2231483455
 10
0.7665946199
 20
0.182687283
 10
0.7691468353
 20
0.1415207618
 10
0.77
 20
0.1
 10
0.7691468353
 20
0.0584792382
 10
0.7665946199
 20
0.017312717
 10
0.7623651286
 20
-0.0231483455
 10
0.7564944459
 20
-0.0625587498
 10
0.7490326583
 20
-0.1005822601
 10
0.7400434271
 20
-0.1368944733
 10
0.7296034455
 20
-0.1711855864
 10
0.7178017834
 20
-0.2031630396
 10
0.7047391287
 20
-0.2325540127
 10
0.6905269273
 20
-0.2591077523
 10
0.6752864326
 20
-0.2825977111
 10
0.6591476712
 20
-0.3028234811
 10
0.6422483332
 20
-0.3196125032
 10
0.624732598
 20
-0.3328215394
 10
0.6067499036
 20
-0.3423378949
 10
0.5884536719
 20
-0.3480803793
 10
0.57
 20
-0.35
 10
0.5515463281
 20
-0.3480803793
 10
0.5332500964
 20
-0.3423378949
 10
0.515267402
 20
-0.3328215394
 10
0.4977516668
 20
-0.3196125032
 10
0.4808523288
 20
-0.3028234811
 10
0.4647135674
 20
-0.2825977111
 10
0.4494730727
 20
-0.2591077523
 10
0.4352608713
 20
-0.2325540127
 10
0.4221982166
 20
-0.2031630396
 10
0.4103965545
 20
-0.1711855864
 10
0.3999565729
 20
-0.1368944733
 10
0.3909673417
 20
-0.1005822601
 10
0.3835055541
 20
-0.0625587498
 10
0.3776348714
 20
-0.0231483455
 10
0.3734053801
 20
0.017312717
 10
0.3708531647
 20
0.0584792382
 10
0.37
 20
0.1
 10
0.3708531647
 20
0.1415207618
 10
0.3734053801
 20
0.182687283
 10
0.3776348714
 20
0.2231483455
 10
0.3835055541
 20
0.2625587498
 10
0.3909673417
 20
0.3005822601
 10
0.3999565729
 20
0.3368944733
 10
0.4103965545
 20
0.3711855864
 10
0.4221982166
 20
0.4031630396
 10
0.4352608713
 20
0.4325540127
 10
0.4494730727
 20
0.4591077523
 10
0.4647135674
 20
0.4825977111
 10
0.4808523288
 20
0.5028234811
 10
0.4977516668
 20
0.5196125032
 10
0.515267402
 20
0.5328215394
 10
0.5332500964
 20
0.5423378949
 10
0.5515463281
 20
0.5480803793
 10
0.57
 20
0.55
  0
CIRCLE
  5
66
330
1F
100
AcDbEntity
  8
0
  6
CONTINUOUS
 62
     7
100
AcDbCircle
 10
1.17
 20
-0.02
 30
0.0
 40
0.0550000000000004
  0
LWPOLYLINE
  5
67
330
1F
100
AcDbEntity
  8
0
  6
CONTINUOUS
 62
     7
100
AcDbPolyline
 90
       54
 70
   128
 43
0.0
 10
-1.87
 20
0.22
 10
-1.8960200976
 20
0.2181048959
 10
-1.9216749301
 20
0.2124461868
 10
-1.9466043598
 20
0.2031033085
 10
-1.9704584322
 20
0.1902074146
 10
-1.9929022885
 20
0.1739395351
 10
-2.013620866
 20
0.1545280354
 10
-2.0323233214
 20
0.1322454104
 10
-2.0487471132
 20
0.1074044594
 10
-2.0626616873
 20
0.0803538947
 10
-2.0738717136
 20
0.0514734472
 10
-2.082219828
 20
0.0211685348
 10
-2.0875888412
 20
-0.0101354277
 10
-2.089903384
 20
-0.0419990015
 10
-2.0891309654
 20
-0.0739748917
 10
-2.0852824283
 20
-0.1056142271
 10
-2.0784117978
 20
-0.1364728605
 10
-2.0686155226
 20
-0.1661176046
 10
-2.0560311208
 20
-0.1941323121
 10
-2.0408352498
 20
-0.2201237178
 10
-2.0232412264
 20
-0.2437269594
 10
-2.0034960321
 20
-0.2646106992
 10
-1.9818768461
 20
-0.2824817752
 10
-1.9586871544
 20
-0.2970893167
 10
-1.9342524895
 20
-0.3082282658
 10
-1.9089158605
 20
-0.315742256
 10
-1.8830329381
 20
-0.3195258076
 10
-1.8569670619
 20
-0.3195258076
 10
-1.8310841395
 20
-0.315742256
 10
-1.8057475105
 20
-0.3082282658
 10
-1.7813128456
 20
-0.2970893167
 10
-1.7581231539
 20
-0.2824817752
 10
-1.7365039679
 20
-0.2646106992
 10
-1.7167587736
 20
-0.2437269594
 10
-1.6991647502
 20
-0.2201237178
 10
-1.6839688792
 20
-0.1941323121
 10
-1.6713844774
 20
-0.1661176046
 10
-1.6615882022
 20
-0.1364728605
 10
-1.6547175717
 20
-0.1056142271
 10
-1.6508690346
 20
-0.0739748917
 10
-1.650096616
 20
-0.0419990015
 10
-1.6524111588
 20
-0.0101354277
 10
-1.657780172
 20
0.0211685348
 10
-1.6661282864
 20
0.0514734472
 10
-1.6773383127
 20
0.0803538947
 10
-1.6912528868
 20
0.1074044594
 10
-1.7076766786
 20
0.1322454104
 10
-1.726379134
 20
0.1545280354
 10
-1.7470977115
 20
0.1739395351
 10
-1.7695415678
 20
0.1902074146
 10
-1.7933956402
 20
0.2031033085
 10
-1.8183250699
 20
0.2124461868
 10
-1.8439799024
 20
0.2181048959
 10
-1.87
 20
0.22
  0
LWPOLYLINE
  5
68
330
1F
100
AcDbEntity
  8
0
  6
CONTINUOUS
 62
     7
100
AcDbPolyline
 90
       65
 70
   128
 43
0.0
 10
-0.9199815485
 20
-0.42
 10
-0.9219076578
 20
-0.3974560577
 10
-0.9276674363
 20
-0.3751292259
 10
-0.9372054142
 20
-0.3532345242
 10
-0.9504297355
 20
-0.3319828106
 10
-0.9672130428
 20
-0.3115787505
 10
-0.9873937036
 20
-0.2922188464
 10
-1.0107773672
 20
-0.2740895446
 10
-1.037138836
 20
-0.2573654403
 10
-1.0662242348
 20
-0.2422075957
 10
-1.0977534553
 20
-0.2287619892
 10
-1.1314228538
 20
-0.2171581092
 10
-1.1669081756
 20
-0.2075077075
 10
-1.2038676776
 20
-0.1999037228
 10
-1.2419454197
 20
-0.1944193855
 10
-1.2807746924
 20
-0.1911075129
 10
-1.3199815485
 20
-0.19
 10
-1.3591884046
 20
-0.1911075129
 10
-1.3980176773
 20
-0.1944193855
 10
-1.4360954194
 20
-0.1999037228
 10
-1.4730549214
 20
-0.2075077075
 10
-1.5085402432
 20
-0.2171581092
 10
-1.5422096417
 20
-0.2287619892
 10
-1.5737388622
 20
-0.2422075957
 10
-1.602824261
 20
-0.2573654403
 10
-1.6291857298
 20
-0.2740895446
 10
-1.6525693934
 20
-0.2922188464
 10
-1.6727500542
 20
-0.3115787505
 10
-1.6895333615
 20
-0.3319828106
 10
-1.7027576828
 20
-0.3532345242
 10
-1.7122956607
 20
-0.3751292259
 10
-1.7180554392
 20
-0.3974560577
 10
-1.7199815485
 20
-0.42
 10
-1.7180554392
 20
-0.4425439423
 10
-1.7122956607
 20
-0.4648707741
 10
-1.7027576828
 20
-0.4867654758
 10
-1.6895333615
 20
-0.5080171894
 10
-1.6727500542
 20
-0.5284212495
 10
-1.6525693934
 20
-0.5477811536
 10
-1.6291857298
 20
-0.5659104554
 10
-1.602824261
 20
-0.5826345597
 10
-1.5737388622
 20
-0.5977924043
 10
-1.5422096417
 20
-0.6112380108
 10
-1.5085402432
 20
-0.6228418908
 10
-1.4730549214
 20
-0.6324922925
 10
-1.4360954194
 20
-0.6400962772
 10
-1.3980176773
 20
-0.6455806145
 10
-1.3591884046
 20
-0.6488924871
 10
-1.3199815485
 20
-0.65
 10
-1.2807746924
 20
-0.6488924871
 10
-1.2419454197
 20
-0.6455806145
 10
-1.2038676776
 20
-0.6400962772
 10
-1.1669081756
 20
-0.6324922925
 10
-1.1314228538
 20
-0.6228418908
 10
-1.0977534553
 20
-0.6112380108
 10
-1.0662242348
 20
-0.5977924043
 10
-1.037138836
 20
-0.5826345597
 10
-1.0107773672
 20
-0.5659104554
 10
-0.9873937036
 20
-0.5477811536
 10
-0.9672130428
 20
-0.5284212495
 10
-0.9504297355
 20
-0.5080171894
 10
-0.9372054142
 20
-0.4867654758
 10
-0.9276674363
 20
-0.4648707741
 10
-0.9219076578
 20
-0.4425439423
 10
-0.9199815485
 20
-0.42
  0
LWPOLYLINE
  5
69
330
1F
100
AcDbEntity
  8
0
  6
CONTINUOUS
 62
     7
100
AcDbPolyline
 90
       69
 70
   128
 43
0.0
 10
-0.57
 20
0.55
 10
-0.5884536719
 20
0.5480803793
 10
-0.6067499036
 20
0.5423378949
 10
-0.624732598
 20
0.5328215394
 10
-0.6422483332
 20
0.5196125032
 10
-0.6591476712
 20
0.5028234811
 10
-0.6752864326
 20
0.4825977111
 10
-0.6905269273
 20
0.4591077523
 10
-0.7047391287
 20
0.4325540127
 10
-0.7178017834
 20
0.4031630396
 10
-0.7296034455
 20
0.3711855864
 10
-0.7400434271
 20
0.3368944733
 10
-0.7490326583
 20
0.3005822601
 10
-0.7564944459
 20
0.2625587498
 10
-0.7623651286
 20
0.2231483455
 10
-0.7665946199
 20
0.182687283
 10
-0.7691468353
 20
0.1415207618
 10
-0.77
 20
0.1
 10
-0.7691468353
 20
0.0584792382
 10
-0.7665946199
 20
0.017312717
 10
-0.7623651286
 20
-0.0231483455
 10
-0.7564944459
 20
-0.0625587498
 10
-0.7490326583
 20
-0.1005822601
 10
-0.7400434271
 20
-0.1368944733
 10
-0.7296034455
 20
-0.1711855864
 10
-0.7178017834
 20
-0.2031630396
 10
-0.7047391287
 20
-0.2325540127
 10
-0.6905269273
 20
-0.2591077523
 10
-0.6752864326
 20
-0.2825977111
 10
-0.6591476712
 20
-0.3028234811
 10
-0.6422483332
 20
-0.3196125032
 10
-0.624732598
 20
-0.3328215394
 10
-0.6067499036
 20
-0.3423378949
 10
-0.5884536719
 20
-0.3480803793
 10
-0.57
 20
-0.35
 10
-0.5515463281
 20
-0.3480803793
 10
-0.5332500964
 20
-0.3423378949
 10
-0.515267402
 20
-0.3328215394
 10
-0.4977516668
 20
-0.3196125032
 10
-0.4808523288
 20
-0.3028234811
 10
-0.4647135674
 20
-0.2825977111
 10
-0.4494730727
 20
-0.2591077523
 10
-0.4352608713
 20
-0.2325540127
 10
-0.4221982166
 20
-0.2031630396
 10
-0.4103965545
 20
-0.1711855864
 10
-0.3999565729
 20
-0.1368944733
 10
-0.3909673417
 20
-0.1005822601
 10
-0.3835055541
 20
-0.0625587498
 10
-0.3776348714
 20
-0.0231483455
 10
-0.3734053801
 20
0.017312717
 10
-0.3708531647
 20
0.0584792382
 10
-0.37
 20
0.1
 10
-0.3708531647
 20
0.1415207618
 10
-0.3734053801
 20
0.182687283
 10
-0.3776348714
 20
0.2231483455
 10
-0.3835055541
 20
0.2625587498
 10
-0.3909673417
 20
0.3005822601
 10
-0.3999565729
 20
0.3368944733
 10
-0.4103965545
 20
0.3711855864
 10
-0.4221982166
 20
0.4031630396
 10
-0.4352608713
 20
0.4325540127
 10
-0.4494730727
 20
0.4591077523
 10
-0.4647135674
 20
0.4825977111
 10
-0.4808523288
 20
0.5028234811
 10
-0.4977516668
 20
0.5196125032
 10
-0.515267402
 20
0.5328215394
 10
-0.5332500964
 20
0.5423378949
 10
-0.5515463281
 20
0.5480803793
 10
-0.57
 20
0.55
  0
CIRCLE
  5
6A
330
1F
100
AcDbEntity
  8
0
  6
CONTINUOUS
 62
     7
100
AcDbCircle
 10
-1.47
 20
-0.02
 30
0.0
 40
0.0550000000000002
  0
CIRCLE
  5
6B
330
1F
100
AcDbEntity
  8
0
  6
CONTINUOUS
 62
     7
100
AcDbCircle
 10
-1.17
 20
-0.02
 30
0.0
 40
0.0550000000000004
  0
CIRCLE
  5
6C
330
1F
100
AcDbEntity
  8
0
  6
CONTINUOUS
 62
     7
100
AcDbCircle
 10
1.47
 20
-0.02
 30
0.0
 40
0.0550000000000002
  0
LWPOLYLINE
  5
6D
330
1F
100
AcDbEntity
  8
0
  6
CONTINUOUS
 62
     7
100
AcDbPolyline
 90
       65
 70
   128
 43
0.0
 10
0.9199815485
 20
-0.42
 10
0.9219076578
 20
-0.3974560577
 10
0.9276674363
 20
-0.3751292259
 10
0.9372054142
 20
-0.3532345242
 10
0.9504297355
 20
-0.3319828106
 10
0.9672130428
 20
-0.3115787505
 10
0.9873937036
 20
-0.2922188464
 10
1.0107773672
 20
-0.2740895446
 10
1.037138836
 20
-0.2573654403
 10
1.0662242348
 20
-0.2422075957
 10
1.0977534553
 20
-0.2287619892
 10
1.1314228538
 20
-0.2171581092
 10
1.1669081756
 20
-0.2075077075
 10
1.2038676776
 20
-0.1999037228
 10
1.2419454197
 20
-0.1944193855
 10
1.2807746924
 20
-0.1911075129
 10
1.3199815485
 20
-0.19
 10
1.3591884046
 20
-0.1911075129
 10
1.3980176773
 20
-0.1944193855
 10
1.4360954194
 20
-0.1999037228
 10
1.4730549214
 20
-0.2075077075
 10
1.5085402432
 20
-0.2171581092
 10
1.5422096417
 20
-0.2287619892
 10
1.5737388622
 20
-0.2422075957
 10
1.602824261
 20
-0.2573654403
 10
1.6291857298
 20
-0.2740895446
 10
1.6525693934
 20
-0.2922188464
 10
1.6727500542
 20
-0.3115787505
 10
1.6895333615
 20
-0.3319828106
 10
1.7027576828
 20
-0.3532345242
 10
1.7122956607
 20
-0.3751292259
 10
1.7180554392
 20
-0.3974560577
 10
1.7199815485
 20
-0.42
 10
1.7180554392
 20
-0.4425439423
 10
1.7122956607
 20
-0.4648707741
 10
1.7027576828
 20
-0.4867654758
 10
1.6895333615
 20
-0.5080171894
 10
1.6727500542
 20
-0.5284212495
 10
1.6525693934
 20
-0.5477811536
 10
1.6291857298
 20
-0.5659104554
 10
1.602824261
 20
-0.5826345597
 10
1.5737388622
 20
-0.5977924043
 10
1.5422096417
 20
-0.6112380108
 10
1.5085402432
 20
-0.6228418908
 10
1.4730549214
 20
-0.6324922925
 10
1.4360954194
 20
-0.6400962772
 10
1.3980176773
 20
-0.6455806145
 10
1.3591884046
 20
-0.6488924871
 10
1.3199815485
 20
-0.65
 10
1.2807746924
 20
-0.6488924871
 10
1.2419454197
 20
-0.6455806145
 10
1.2038676776
 20
-0.6400962772
 10
1.1669081756
 20
-0.6324922925
 10
1.1314228538
 20
-0.6228418908
 10
1.0977534553
 20
-0.6112380108
 10
1.0662242348
 20
-0.5977924043
 10
1.037138836
 20
-0.5826345597
 10
1.0107773672
 20
-0.5659104554
 10
0.9873937036
 20
-0.5477811536
 10
0.9672130428
 20
-0.5284212495
 10
0.9504297355
 20
-0.5080171894
 10
0.9372054142
 20
-0.4867654758
 10
0.9276674363
 20
-0.4648707741
 10
0.9219076578
 20
-0.4425439423
 10
0.9199815485
 20
-0.42
  0
LINE
  5
6E
330
1F
100
AcDbEntity
  8
0
  6
CONTINUOUS
 62
     7
100
AcDbLine
 10
1.445
 20
-0.75
 30
0.0
 11
2.17
 21
-0.75
 31
0.0
  0
LINE
  5
6F
330
1F
100
AcDbEntity
  8
0
  6
CONTINUOUS
 62
     7
100
AcDbLine
 10
1.445
 20
-0.75
 30
0.0
 11
1.445
 21
-0.877
 31
0.0
  0
LINE
  5
70
330
1F
100
AcDbEntity
  8
0
  6
CONTINUOUS
 62
     7
100
AcDbLine
 10
1.445
 20
-0.877
 30
0.0
 11
1.195
 21
-0.877
 31
0.0
  0
LINE
  5
71
330
1F
100
AcDbEntity
  8
0
  6
CONTINUOUS
 62
     7
100
AcDbLine
 10
1.195
 20
-0.877
 30
0.0
 11
1.195
 21
-0.75
 31
0.0
  0
LINE
  5
72
330
1F
100
AcDbEntity
  8
0
  6
CONTINUOUS
 62
     7
100
AcDbLine
 10
0.5
 20
-0.75
 30
0.0
 11
1.195
 21
-0.75
 31
0.0
  0
LINE
  5
73
330
1F
100
AcDbEntity
  8
0
  6
CONTINUOUS
 62
     7
100
AcDbLine
 10
0.067643032
 20
-0.4623250844
 30
0.0
 11
0.067643032
 21
0.0
 31
0.0
  0
LINE
  5
74
330
1F
100
AcDbEntity
  8
0
  6
CONTINUOUS
 62
     7
100
AcDbLine
 10
0.067643032
 20
0.0
 30
0.0
 11
-0.057356968
 21
0.0
 31
0.0
  0
LINE
  5
75
330
1F
100
AcDbEntity
  8
0
  6
CONTINUOUS
 62
     7
100
AcDbLine
 10
-0.057356968
 20
0.0
 30
0.0
 11
-0.057356968
 21
-0.4600275293
 31
0.0
  0
LINE
  5
76
330
1F
100
AcDbEntity
  8
0
  6
CONTINUOUS
 62
     7
100
AcDbLine
 10
-1.195
 20
-0.75
 30
0.0
 11
-0.5
 21
-0.75
 31
0.0
  0
LINE
  5
77
330
1F
100
AcDbEntity
  8
0
  6
CONTINUOUS
 62
     7
100
AcDbLine
 10
-1.195
 20
-0.877
 30
0.0
 11
-1.195
 21
-0.75
 31
0.0
  0
LINE
  5
78
330
1F
100
AcDbEntity
  8
0
  6
CONTINUOUS
 62
     7
100
AcDbLine
 10
-1.445
 20
-0.877
 30
0.0
 11
-1.195
 21
-0.877
 31
0.0
  0
LINE
  5
79
330
1F
100
AcDbEntity
  8
0
  6
CONTINUOUS
 62
     7
100
AcDbLine
 10
-1.445
 20
-0.75
 30
0.0
 11
-1.445
 21
-0.877
 31
0.0
  0
LINE
  5
7A
330
1F
100
AcDbEntity
  8
0
  6
CONTINUOUS
 62
     7
100
AcDbLine
 10
-2.17
 20
-0.75
 30
0.0
 11
-1.445
 21
-0.75
 31
0.0
  0
LINE
  5
7B
330
1F
100
AcDbEntity
  8
0
  6
CONTINUOUS
 62
     7
100
AcDbLine
 10
-2.52
 20
-0.35
 30
0.0
 11
-2.52
 21
-0.4
 31
0.0
  0
LINE
  5
7C
330
1F
100
AcDbEntity
  8
0
  6
CONTINUOUS
 62
     7
100
AcDbLine
 10
-2.645
 20
-0.35
 30
0.0
 11
-2.52
 21
-0.35
 31
0.0
  0
LINE
  5
7D
330
1F
100
AcDbEntity
  8
0
  6
CONTINUOUS
 62
     7
100
AcDbLine
 10
-2.645
 20
-0.1
 30
0.0
 11
-2.645
 21
-0.35
 31
0.0
  0
LINE
  5
7E
330
1F
100
AcDbEntity
  8
0
  6
CONTINUOUS
 62
     7
100
AcDbLine
 10
-2.52
 20
-0.1
 30
0.0
 11
-2.645
 21
-0.1
 31
0.0
  0
LINE
  5
7F
330
1F
100
AcDbEntity
  8
0
  6
CONTINUOUS
 62
     7
100
AcDbLine
 10
-2.52
 20
0.3
 30
0.0
 11
-2.52
 21
-0.1
 31
0.0
  0
LINE
  5
80
330
1F
100
AcDbEntity
  8
0
  6
CONTINUOUS
 62
     7
100
AcDbLine
 10
-2.645
 20
0.3
 30
0.0
 11
-2.52
 21
0.3
 31
0.0
  0
LINE
  5
81
330
1F
100
AcDbEntity
  8
0
  6
CONTINUOUS
 62
     7
100
AcDbLine
 10
-2.645
 20
0.55
 30
0.0
 11
-2.645
 21
0.3
 31
0.0
  0
LINE
  5
82
330
1F
100
AcDbEntity
  8
0
  6
CONTINUOUS
 62
     7
100
AcDbLine
 10
-2.52
 20
0.55
 30
0.0
 11
-2.645
 21
0.55
 31
0.0
  0
LINE
  5
83
330
1F
100
AcDbEntity
  8
0
  6
CONTINUOUS
 62
     7
100
AcDbLine
 10
-2.52
 20
0.75
 30
0.0
 11
-2.52
 21
0.55
 31
0.0
  0
LINE
  5
84
330
1F
100
AcDbEntity
  8
0
  6
CONTINUOUS
 62
     7
100
AcDbLine
 10
2.52
 20
0.75
 30
0.0
 11
-2.52
 21
0.75
 31
0.0
  0
LINE
  5
85
330
1F
100
AcDbEntity
  8
0
  6
CONTINUOUS
 62
     7
100
AcDbLine
 10
2.52
 20
0.55
 30
0.0
 11
2.52
 21
0.75
 31
0.0
  0
LINE
  5
86
330
1F
100
AcDbEntity
  8
0
  6
CONTINUOUS
 62
     7
100
AcDbLine
 10
2.52
 20
0.55
 30
0.0
 11
2.645
 21
0.55
 31
0.0
  0
LINE
  5
87
330
1F
100
AcDbEntity
  8
0
  6
CONTINUOUS
 62
     7
100
AcDbLine
 10
2.645
 20
0.55
 30
0.0
 11
2.645
 21
0.3
 31
0.0
  0
LINE
  5
88
330
1F
100
AcDbEntity
  8
0
  6
CONTINUOUS
 62
     7
100
AcDbLine
 10
2.645
 20
0.3
 30
0.0
 11
2.52
 21
0.3
 31
0.0
  0
LINE
  5
89
330
1F
100
AcDbEntity
  8
0
  6
CONTINUOUS
 62
     7
100
AcDbLine
 10
2.52
 20
-0.1
 30
0.0
 11
2.52
 21
0.3
 31
0.0
  0
LINE
  5
8A
330
1F
100
AcDbEntity
  8
0
  6
CONTINUOUS
 62
     7
100
AcDbLine
 10
2.52
 20
-0.1
 30
0.0
 11
2.645
 21
-0.1
 31
0.0
  0
LINE
  5
8B
330
1F
100
AcDbEntity
  8
0
  6
CONTINUOUS
 62
     7
100
AcDbLine
 10
2.645
 20
-0.1
 30
0.0
 11
2.645
 21
-0.35
 31
0.0
  0
LINE
  5
8C
330
1F
100
AcDbEntity
  8
0
  6
CONTINUOUS
 62
     7
100
AcDbLine
 10
2.645
 20
-0.35
 30
0.0
 11
2.52
 21
-0.35
 31
0.0
  0
LINE
  5
8D
330
1F
100
AcDbEntity
  8
0
  6
CONTINUOUS
 62
     7
100
AcDbLine
 10
2.52
 20
-0.4
 30
0.0
 11
2.52
 21
-0.35
 31
0.0
  0
ARC
  5
8E
330
1F
100
AcDbEntity
  8
0
  6
CONTINUOUS
 62
     7
100
AcDbCircle
 10
-0.0980966167
 20
-1.1801610279
 30
0.0
 40
0.7367211635805733
100
AcDbArc
 50
35.7243160156
 51
76.9989267622
  0
ARC
  5
8F
330
1F
100
AcDbEntity
  8
0
  6
CONTINUOUS
 62
     7
100
AcDbCircle
 10
0.0980966167
 20
-1.1801610279
 30
0.0
 40
0.7367211635805757
100
AcDbArc
 50
102.1813923986
 51
144.2756839844
  0
ARC
  5
90
330
1F
100
AcDbEntity
  8
0
  6
CONTINUOUS
 62
     7
100
AcDbCircle
 10
-2.52
 20
-0.75
 30
0.0
 40
0.3500000000000007
100
AcDbArc
 50
0.0
 51
90.0
  0
ARC
  5
91
330
1F
100
AcDbEntity
  8
0
  6
CONTINUOUS
 62
     7
100
AcDbCircle
 10
2.52
 20
-0.75
 30
0.0
 40
0.3500000000000007
100
AcDbArc
 50
90.0
 51
180.0
  0
ENDSEC
  0
SECTION
  2
OBJECTS
  0
DICTIONARY
  5
C
330
0
100
AcDbDictionary
  3
ACAD_GROUP
350
D
  3
ACAD_LAYOUT
350
1A
  3
ACAD_MLEADERSTYLE
350
B4
  3
ACAD_MLINESTYLE
350
17
  3
ACAD_PLOTSETTINGS
350
19
  3
ACAD_VISUALSTYLE
350
2A
  3
ACDBHEADERROUNDTRIPXREC
350
92
  3
ACDBVARIABLEDICTIONARY
350
B2
  0
DICTIONARY
  5
D
102
{ACAD_REACTORS
330
C
102
}
330
C
100
AcDbDictionary
  0
DICTIONARY
  5
1A
102
{ACAD_REACTORS
330
C
102
}
330
C
100
AcDbDictionary
  0
DICTIONARY
  5
B4
102
{ACAD_REACTORS
330
C
102
}
330
C
100
AcDbDictionary
  0
DICTIONARY
  5
17
102
{ACAD_REACTORS
330
C
102
}
330
C
100
AcDbDictionary
  3
STANDARD
350
18
  0
DICTIONARY
  5
19
102
{ACAD_REACTORS
330
C
102
}
330
C
100
AcDbDictionary
  0
DICTIONARY
  5
2A
102
{ACAD_REACTORS
330
C
102
}
330
C
100
AcDbDictionary
  3
2DWIREFRAME
350
2F
  3
3D_HIDDEN
350
31
  3
3DWIREFRAME
350
30
  3
BASIC
350
32
  3
BRIGHTEN
350
36
  3
COLORCHANGE
350
3A
  3
CONCEPTUAL
350
34
  3
DIM
350
35
  3
FACEPATTERN
350
39
  3
FLAT
350
2B
  3
FLATWITHEDGES
350
2C
  3
GOURAUD
350
2D
  3
GOURAUDWITHEDGES
350
2E
  3
LINEPATTERN
350
38
  3
REALISTIC
350
33
  3
THICKEN
350
37
  0
DICTIONARY
  5
92
102
{ACAD_REACTORS
330
C
102
}
330
C
100
AcDbDictionary
  3
CEPSNTYPE
350
9B
  3
DIMSTYLEDATA
350
B1
  3
FINGERPRINTGUID
350
9C
  3
HYPERLINKBASE
350
95
  3
INSUNITS
350
9A
  3
LAYOUTDICT
350
97
  3
LWETCUNION
350
99
  3
PLOTSETDICT
350
98
  3
PSVPSCALE
350
9E
  3
PUCSBASE
350
A1
  3
PUCSORGBACK
350
A7
  3
PUCSORGBOTTOM
350
A3
  3
PUCSORGFRONT
350
A6
  3
PUCSORGLEFT
350
A4
  3
PUCSORGRIGHT
350
A5
  3
PUCSORGTOP
350
A2
  3
PUCSORTHOREF
350
9F
  3
PUCSORTHOVIEW
350
A0
  3
STYLESHEET
350
96
  3
TSTACKALIGN
350
93
  3
TSTACKSIZE
350
94
  3
UCSBASE
350
AA
  3
UCSORGBACK
350
B0
  3
UCSORGBOTTOM
350
AC
  3
UCSORGFRONT
350
AF
  3
UCSORGLEFT
350
AD
  3
UCSORGRIGHT
350
AE
  3
UCSORGTOP
350
AB
  3
UCSORTHOREF
350
A8
  3
UCSORTHOVIEW
350
A9
  3
VERSIONGUID
350
9D
  0
DICTIONARY
  5
B2
102
{ACAD_REACTORS
330
C
102
}
330
C
100
AcDbDictionary
  3
DIMASSOC
350
B5
  3
HIDETEXT
350
B6
  0
MLINESTYLE
  5
18
102
{ACAD_REACTORS
330
17
102
}
330
17
100
AcDbMlineStyle
  2
Standard
 70
     0
  3

 62
   256
 51
90.0
 52
90.0
 71
     2
 49
0.5
 62
   256
  6
BYLAYER
 49
-0.5
 62
   256
  6
BYLAYER
  0
ACAD_PROXY_OBJECT
  5
2F
102
{ACAD_REACTORS
330
2A
102
}
330
2A
100
AcDbProxyObject
 90
      499
 91
      501
 93
      436
310
42CC9915DA5C99599C985B595049028333333333333E3BF0000000000000FB0107901411070040501600405405064090741402480A0340
1001
ACAD
1000
AcDbSavedByObjectVersion
1070
     0
  0
ACAD_PROXY_OBJECT
  5
31
102
{ACAD_REACTORS
330
2A
102
}
330
2A
100
AcDbProxyObject
 90
      499
 91
      501
 93
      500
310
424CD108121A5919195B90640502408333333333333E3BF0000000000000FB01079024090700405020000000000001110200405405064090740C02480A0340
1001
ACAD
1000
AcDbSavedByObjectVersion
1070
     0
  0
ACAD_PROXY_OBJECT
  5
30
102
{ACAD_REACTORS
330
2A
102
}
330
2A
100
AcDbProxyObject
 90
      499
 91
      501
 93
      436
310
42CCD915DA5C99599C985B595059028333333333333E3BF0000000000000FB0107901411070040501600405405064090741402480A0340
1001
ACAD
1000
AcDbSavedByObjectVersion
1070
     0
  0
ACAD_PROXY_OBJECT
  5
32
102
{ACAD_REACTORS
330
2A
102
}
330
2A
100
AcDbProxyObject
 90
      499
 91
      501
 93
      388
310
4150985CDA58D07406404333333333333E3BF0000000000000FB0107A41107004050150841D405064090741402480A0350
1001
ACAD
1000
AcDbSavedByObjectVersion
1070
     0
  0
ACAD_PROXY_OBJECT
  5
36
102
{ACAD_REACTORS
330
2A
102
}
330
2A
100
AcDbProxyObject
 90
      499
 91
      501
 93
      428
310
42109C9A59DA1D195B90C409028333333333333E3BF0000000000000FB010790141107004050150841D405064090741402480A029950
1001
ACAD
1000
AcDbSavedByObjectVersion
1070
     0
  0
ACAD_PROXY_OBJECT
  5
3A
102
{ACAD_REACTORS
330
2A
102
}
330
2A
100
AcDbProxyObject
 90
      499
 91
      501
 93
      452
310
42D0DBDB1BDC90DA185B99D95104090240C333333333333E3BF0000000000000FB0108901411070040501508421405064090741402480A0350
1001
ACAD
1000
AcDbSavedByObjectVersion
1070
     0
  0
ACAD_PROXY_OBJECT
  5
34
102
{ACAD_REACTORS
330
2A
102
}
330
2A
100
AcDbProxyObject
 90
      499
 91
      501
 93
      500
310
4290DBDB98D95C1D1D585B10940D028333333333333E3BF0000000000000FB0107902409070040501000000000000111010841D405064090740C02480A0340
1001
ACAD
1000
AcDbSavedByObjectVersion
1070
     0
  0
ACAD_PROXY_OBJECT
  5
35
102
{ACAD_REACTORS
330
2A
102
}
330
2A
100
AcDbProxyObject
 90
      499
 91
      501
 93
      412
310
40D11A5B50B409028333333333333E3BF0000000000000FB010790141107004050150841D405064090741402480A02677FFFFFD0
1001
ACAD
1000
AcDbSavedByObjectVersion
1070
     0
  0
ACAD_PROXY_OBJECT
  5
39
102
{ACAD_REACTORS
330
2A
102
}
330
2A
100
AcDbProxyObject
 90
      499
 91
      501
 93
      444
310
42D19858D95C185D1D195C9B90F409028333333333333E3BF0000000000000FB010790141107004050150841D405064090741402480A0350
1001
ACAD
1000
AcDbSavedByObjectVersion
1070
     0
  0
ACAD_PROXY_OBJECT
  5
2B
102
{ACAD_REACTORS
330
2A
102
}
330
2A
100
AcDbProxyObject
 90
      499
 91
      501
 93
      388
310
41119B185D240901404333333333333E3BF0000000000000F9010740A41107004050150841D405064090741402480A1B50
1001
ACAD
1000
AcDbSavedByObjectVersion
1070
     0
  0
ACAD_PROXY_OBJECT
  5
2C
102
{ACAD_REACTORS
330
2A
102
}
330
2A
100
AcDbProxyObject
 90
      499
 91
      501
 93
      476
310
43519B185D15DA5D1A115919D95CD0140901404333333333333E3BF0000000000000F9010740901411070040501600405405064090741402480A1B50
1001
ACAD
1000
AcDbSavedByObjectVersion
1070
     0
  0
ACAD_PROXY_OBJECT
  5
2D
102
{ACAD_REACTORS
330
2A
102
}
330
2A
100
AcDbProxyObject
 90
      499
 91
      501
 93
      412
310
41D1DBDD5C985D5910240902404333333333333E3BF0000000000000F9010740A411070040501641D405064090741402480A1B50
1001
ACAD
1000
AcDbSavedByObjectVersion
1070
     0
  0
ACAD_PROXY_OBJECT
  5
2E
102
{ACAD_REACTORS
330
2A
102
}
330
2A
100
AcDbProxyObject
 90
      499
 91
      501
 93
      500
310
4411DBDD5C985D5915DA5D1A115919D95CD0340902404333333333333E3BF0000000000000F9010740901411070040501600405405064090741402480A1B50
1001
ACAD
1000
AcDbSavedByObjectVersion
1070
     0
  0
ACAD_PROXY_OBJECT
  5
38
102
{ACAD_REACTORS
330
2A
102
}
330
2A
100
AcDbProxyObject
 90
      499
 91
      501
 93
      444
310
42D31A5B995C185D1D195C9B90E409028333333333333E3BF0000000000000FB010790141107004050750841D405064090741402483A0350
1001
ACAD
1000
AcDbSavedByObjectVersion
1070
     0
  0
ACAD_PROXY_OBJECT
  5
33
102
{ACAD_REACTORS
330
2A
102
}
330
2A
100
AcDbProxyObject
 90
      499
 91
      501
 93
      420
310
425499585B1A5CDD1A58D08409028333333333333E3BF0000000000000FB01079019070040501508421405064090741402480A1B40
1001
ACAD
1000
AcDbSavedByObjectVersion
1070
     0
  0
ACAD_PROXY_OBJECT
  5
37
102
{ACAD_REACTORS
330
2A
102
}
330
2A
100
AcDbProxyObject
 90
      499
 91
      501
 93
      412
310
41D51A1A58DAD95B90D409028333333333333E3BF0000000000000FB010790141107004050150C41D405064090741402480A0350
1001
ACAD
1000
AcDbSavedByObjectVersion
1070
     0
  0
ACAD_PROXY_OBJECT
  5
9B
102
{ACAD_REACTORS
330
92
102
}
330
92
100
AcDbProxyObject
 90
      499
 91
      503
 93
       58
310
4196800000000000
  0
ACAD_PROXY_OBJECT
  5
B1
102
{ACAD_REACTORS
330
92
102
}
330
92
100
AcDbProxyObject
 90
      499
 91
      503
 93
     1122
310
62FA00C180079114D51653117A80C040079ECB812CC0118000800B810A400A00291C0F42B5E8F00FCB8103C0518000C00B810B000A0002A150A8540A290FCB810A800A0002A150A8540A290FCB8124C00A002E07A17AD46E2B8FCB811340118000400B810400518000C00B811500550044400000000000000B8123000A001A
310
4D06A351A8F04FFA80C040079F40
  0
ACAD_PROXY_OBJECT
  5
9C
102
{ACAD_REACTORS
330
92
102
}
330
92
100
AcDbProxyObject
 90
      499
 91
      503
 93
      354
310
4AC0400980079ECD8C0C8C4E10918C4B509090514B4D10910CCB4E0C50904B4C50514DCE508CD08C114CCE5F40
  0
ACAD_PROXY_OBJECT
  5
95
102
{ACAD_REACTORS
330
92
102
}
330
92
100
AcDbProxyObject
 90
      499
 91
      503
 93
       50
310
41404000000780
  0
ACAD_PROXY_OBJECT
  5
9A
102
{ACAD_REACTORS
330
92
102
}
330
92
100
AcDbProxyObject
 90
      499
 91
      503
 93
       58
310
4196800040000000
  0
ACAD_PROXY_OBJECT
  5
97
102
{ACAD_REACTORS
330
92
102
}
330
92
100
AcDbProxyObject
 90
      499
 91
      503
 93
       90
310
429500468000000000000000
  0
ACAD_PROXY_OBJECT
  5
99
102
{ACAD_REACTORS
330
92
102
}
330
92
100
AcDbProxyObject
 90
      499
 91
      503
 93
       58
310
419680074A000000
  0
ACAD_PROXY_OBJECT
  5
98
102
{ACAD_REACTORS
330
92
102
}
330
92
100
AcDbProxyObject
 90
      499
 91
      503
 93
       90
310
429500464000000000000000
  0
ACAD_PROXY_OBJECT
  5
9E
102
{ACAD_REACTORS
330
92
102
}
330
92
100
AcDbProxyObject
 90
      499
 91
      503
 93
       90
310
428A00000000000000000000
  0
ACAD_PROXY_OBJECT
  5
A1
102
{ACAD_REACTORS
330
92
102
}
330
92
100
AcDbProxyObject
 90
      499
 91
      503
 93
       90
310
429500400000000000000000
  0
ACAD_PROXY_OBJECT
  5
A7
102
{ACAD_REACTORS
330
92
102
}
330
92
100
AcDbProxyObject
 90
      499
 91
      503
 93
      218
310
46828000000000000000000000000000000000000000000000000000
  0
ACAD_PROXY_OBJECT
  5
A3
102
{ACAD_REACTORS
330
92
102
}
330
92
100
AcDbProxyObject
 90
      499
 91
      503
 93
      218
310
46828000000000000000000000000000000000000000000000000000
  0
ACAD_PROXY_OBJECT
  5
A6
102
{ACAD_REACTORS
330
92
102
}
330
92
100
AcDbProxyObject
 90
      499
 91
      503
 93
      218
310
46828000000000000000000000000000000000000000000000000000
  0
ACAD_PROXY_OBJECT
  5
A4
102
{ACAD_REACTORS
330
92
102
}
330
92
100
AcDbProxyObject
 90
      499
 91
      503
 93
      218
310
46828000000000000000000000000000000000000000000000000000
  0
ACAD_PROXY_OBJECT
  5
A5
102
{ACAD_REACTORS
330
92
102
}
330
92
100
AcDbProxyObject
 90
      499
 91
      503
 93
      218
310
46828000000000000000000000000000000000000000000000000000
  0
ACAD_PROXY_OBJECT
  5
A2
102
{ACAD_REACTORS
330
92
102
}
330
92
100
AcDbProxyObject
 90
      499
 91
      503
 93
      218
310
46828000000000000000000000000000000000000000000000000000
  0
ACAD_PROXY_OBJECT
  5
9F
102
{ACAD_REACTORS
330
92
102
}
330
92
100
AcDbProxyObject
 90
      499
 91
      503
 93
       90
310
429500400000000000000000
  0
ACAD_PROXY_OBJECT
  5
A0
102
{ACAD_REACTORS
330
92
102
}
330
92
100
AcDbProxyObject
 90
      499
 91
      503
 93
       42
310
411180000000
  0
ACAD_PROXY_OBJECT
  5
96
102
{ACAD_REACTORS
330
92
102
}
330
92
100
AcDbProxyObject
 90
      499
 91
      503
 93
       50
310
41404000000780
  0
ACAD_PROXY_OBJECT
  5
93
102
{ACAD_REACTORS
330
92
102
}
330
92
100
AcDbProxyObject
 90
      499
 91
      503
 93
       58
310
4196800040000000
  0
ACAD_PROXY_OBJECT
  5
94
102
{ACAD_REACTORS
330
92
102
}
330
92
100
AcDbProxyObject
 90
      499
 91
      503
 93
       58
310
4196801180000000
  0
ACAD_PROXY_OBJECT
  5
AA
102
{ACAD_REACTORS
330
92
102
}
330
92
100
AcDbProxyObject
 90
      499
 91
      503
 93
       90
310
429500400000000000000000
  0
ACAD_PROXY_OBJECT
  5
B0
102
{ACAD_REACTORS
330
92
102
}
330
92
100
AcDbProxyObject
 90
      499
 91
      503
 93
      218
310
46828000000000000000000000000000000000000000000000000000
  0
ACAD_PROXY_OBJECT
  5
AC
102
{ACAD_REACTORS
330
92
102
}
330
92
100
AcDbProxyObject
 90
      499
 91
      503
 93
      218
310
46828000000000000000000000000000000000000000000000000000
  0
ACAD_PROXY_OBJECT
  5
AF
102
{ACAD_REACTORS
330
92
102
}
330
92
100
AcDbProxyObject
 90
      499
 91
      503
 93
      218
310
46828000000000000000000000000000000000000000000000000000
  0
ACAD_PROXY_OBJECT
  5
AD
102
{ACAD_REACTORS
330
92
102
}
330
92
100
AcDbProxyObject
 90
      499
 91
      503
 93
      218
310
46828000000000000000000000000000000000000000000000000000
  0
ACAD_PROXY_OBJECT
  5
AE
102
{ACAD_REACTORS
330
92
102
}
330
92
100
AcDbProxyObject
 90
      499
 91
      503
 93
      218
310
46828000000000000000000000000000000000000000000000000000
  0
ACAD_PROXY_OBJECT
  5
AB
102
{ACAD_REACTORS
330
92
102
}
330
92
100
AcDbProxyObject
 90
      499
 91
      503
 93
      218
310
46828000000000000000000000000000000000000000000000000000
  0
ACAD_PROXY_OBJECT
  5
A8
102
{ACAD_REACTORS
330
92
102
}
330
92
100
AcDbProxyObject
 90
      499
 91
      503
 93
       90
310
429500400000000000000000
  0
ACAD_PROXY_OBJECT
  5
A9
102
{ACAD_REACTORS
330
92
102
}
330
92
100
AcDbProxyObject
 90
      499
 91
      503
 93
       42
310
411180000000
  0
ACAD_PROXY_OBJECT
  5
9D
102
{ACAD_REACTORS
330
92
102
}
330
92
100
AcDbProxyObject
 90
      499
 91
      503
 93
      354
310
4AC0400980079ED19051508C50CCCC8B514C0C4E4B4C4C510D4B4E4C8E508B4C0C10CC11118C8D4D9150CD1F40
  0
DICTIONARYVAR
  5
B5
102
{ACAD_REACTORS
330
B2
102
}
330
B2
100
DictionaryVariables
280
     0
  1
2
  0
DICTIONARYVAR
  5
B6
102
{ACAD_REACTORS
330
B2
102
}
330
B2
100
DictionaryVariables
280
     0
  1
1
  0
ENDSEC
  0
EOF
