  0
SECTION
  2
HEADER
  9
$ACADVER
  1
AC1014
  9
$ACADMAINTVER
 70
     9
  9
$DWGCODEPAGE
  3
ANSI_1252
  9
$INSBASE
 10
0.0
 20
0.0
 30
0.0
  9
$EXTMIN
 10
-2.647
 20
-1.19
 30
0.0
  9
$EXTMAX
 10
2.647
 20
1.39
 30
0.0
  9
$LIMMIN
 10
0.0
 20
0.0
  9
$LIMMAX
 10
12.0
 20
9.0
  9
$ORTHOMODE
 70
     0
  9
$REGENMODE
 70
     1
  9
$FILLMODE
 70
     1
  9
$QTEXTMODE
 70
     0
  9
$MIRRTEXT
 70
     1
  9
$DRAGMODE
 70
     2
  9
$LTSCALE
 40
1.0
  9
$OSMODE
 70
    37
  9
$ATTMODE
 70
     1
  9
$TEXTSIZE
 40
0.1377952756
  9
$TRACEWID
 40
0.05
  9
$TEXTSTYLE
  7
STANDARD
  9
$CLAYER
  8
0
  9
$CELTYPE
  6
BYLAYER
  9
$CECOLOR
 62
   256
  9
$CELTSCALE
 40
1.0
  9
$DELOBJ
 70
     1
  9
$DISPSILH
 70
     0
  9
$DIMSCALE
 40
1.0
  9
$DIMASZ
 40
0.13
  9
$DIMEXO
 40
0.0393700787
  9
$DIMDLI
 40
0.38
  9
$DIMRND
 40
0.0
  9
$DIMDLE
 40
0.0
  9
$DIMEXE
 40
0.0393700787
  9
$DIMTP
 40
0.0
  9
$DIMTM
 40
0.0
  9
$DIMTXT
 40
0.1377952756
  9
$DIMCEN
 40
0.09
  9
$DIMTSZ
 40
0.0
  9
$DIMTOL
 70
     0
  9
$DIMLIM
 70
     0
  9
$DIMTIH
 70
     1
  9
$DIMTOH
 70
     1
  9
$DIMSE1
 70
     0
  9
$DIMSE2
 70
     0
  9
$DIMTAD
 70
     1
  9
$DIMZIN
 70
     0
  9
$DIMBLK
  1

  9
$DIMASO
 70
     1
  9
$DIMSHO
 70
     1
  9
$DIMPOST
  1

  9
$DIMAPOST
  1

  9
$DIMALT
 70
     0
  9
$DIMALTD
 70
     2
  9
$DIMALTF
 40
25.4
  9
$DIMLFAC
 40
1.0
  9
$DIMTOFL
 70
     0
  9
$DIMTVP
 40
0.0
  9
$DIMTIX
 70
     0
  9
$DIMSOXD
 70
     0
  9
$DIMSAH
 70
     0
  9
$DIMBLK1
  1

  9
$DIMBLK2
  1

  9
$DIMSTYLE
  2
STANDARD
  9
$DIMCLRD
 70
     0
  9
$DIMCLRE
 70
     0
  9
$DIMCLRT
 70
     0
  9
$DIMTFAC
 40
1.0
  9
$DIMGAP
 40
0.06
  9
$DIMJUST
 70
     0
  9
$DIMSD1
 70
     0
  9
$DIMSD2
 70
     0
  9
$DIMTOLJ
 70
     1
  9
$DIMTZIN
 70
     0
  9
$DIMALTZ
 70
     0
  9
$DIMALTTZ
 70
     0
  9
$DIMFIT
 70
     3
  9
$DIMUPT
 70
     0
  9
$DIMUNIT
 70
     2
  9
$DIMDEC
 70
     3
  9
$DIMTDEC
 70
     3
  9
$DIMALTU
 70
     2
  9
$DIMALTTD
 70
     2
  9
$DIMTXSTY
  7
STANDARD
  9
$DIMAUNIT
 70
     0
  9
$LUNITS
 70
     2
  9
$LUPREC
 70
     2
  9
$SKETCHINC
 40
0.1
  9
$FILLETRAD
 40
0.5
  9
$AUNITS
 70
     0
  9
$AUPREC
 70
     2
  9
$MENU
  1
.
  9
$ELEVATION
 40
0.0
  9
$PELEVATION
 40
0.0
  9
$THICKNESS
 40
0.0
  9
$LIMCHECK
 70
     0
  9
$CHAMFERA
 40
0.5
  9
$CHAMFERB
 40
0.5
  9
$CHAMFERC
 40
1.0
  9
$CHAMFERD
 40
0.0
  9
$SKPOLY
 70
     0
  9
$TDCREATE
 40
2456406.717805521
  9
$TDUPDATE
 40
2456406.717805532
  9
$TDINDWG
 40
0.0000000116
  9
$TDUSRTIMER
 40
0.0000000116
  9
$USRTIMER
 70
     1
  9
$ANGBASE
 50
0.0
  9
$ANGDIR
 70
     0
  9
$PDMODE
 70
     0
  9
$PDSIZE
 40
-1.0
  9
$PLINEWID
 40
0.0
  9
$COORDS
 70
     1
  9
$SPLFRAME
 70
     0
  9
$SPLINETYPE
 70
     6
  9
$SPLINESEGS
 70
     8
  9
$ATTDIA
 70
     0
  9
$ATTREQ
 70
     1
  9
$HANDLING
 70
     1
  9
$HANDSEED
  5
136
  9
$SURFTAB1
 70
     6
  9
$SURFTAB2
 70
     6
  9
$SURFTYPE
 70
     6
  9
$SURFU
 70
     6
  9
$SURFV
 70
     6
  9
$UCSNAME
  2

  9
$UCSORG
 10
0.0
 20
0.0
 30
0.0
  9
$UCSXDIR
 10
1.0
 20
0.0
 30
0.0
  9
$UCSYDIR
 10
0.0
 20
1.0
 30
0.0
  9
$PUCSNAME
  2

  9
$PUCSORG
 10
0.0
 20
0.0
 30
0.0
  9
$PUCSXDIR
 10
1.0
 20
0.0
 30
0.0
  9
$PUCSYDIR
 10
0.0
 20
1.0
 30
0.0
  9
$USERI1
 70
     0
  9
$USERI2
 70
     0
  9
$USERI3
 70
     0
  9
$USERI4
 70
     0
  9
$USERI5
 70
     0
  9
$USERR1
 40
0.0
  9
$USERR2
 40
0.0
  9
$USERR3
 40
0.0
  9
$USERR4
 40
0.0
  9
$USERR5
 40
0.0
  9
$WORLDVIEW
 70
     1
  9
$SHADEDGE
 70
     3
  9
$SHADEDIF
 70
    70
  9
$TILEMODE
 70
     1
  9
$MAXACTVP
 70
    64
  9
$PINSBASE
 10
0.0
 20
0.0
 30
0.0
  9
$PLIMCHECK
 70
     0
  9
$PEXTMIN
 10
1.0000000000E+20
 20
1.0000000000E+20
 30
1.0000000000E+20
  9
$PEXTMAX
 10
-1.0000000000E+20
 20
-1.0000000000E+20
 30
-1.0000000000E+20
  9
$PLIMMIN
 10
0.0
 20
0.0
  9
$PLIMMAX
 10
12.0
 20
9.0
  9
$UNITMODE
 70
     0
  9
$VISRETAIN
 70
     1
  9
$PLINEGEN
 70
     0
  9
$PSLTSCALE
 70
     1
  9
$TREEDEPTH
 70
  3020
  9
$PICKSTYLE
 70
     1
  9
$CMLSTYLE
  2
STANDARD
  9
$CMLJUST
 70
     0
  9
$CMLSCALE
 40
1.0
  9
$PROXYGRAPHICS
 70
     1
  9
$MEASUREMENT
 70
     0
  0
ENDSEC
  0
SECTION
  2
CLASSES
  0
CLASS
  1
ACDBDICTIONARYWDFLT
  2
AcDbDictionaryWithDefault
  3
ObjectDBX Classes
 90
        0
280
     0
281
     0
  0
CLASS
  1
VISUALSTYLE
  2
AcDbVisualStyle
  3
ObjectDBX Classes
 90
     4095
280
     0
281
     0
  0
CLASS
  1
DICTIONARYVAR
  2
AcDbDictionaryVar
  3
ObjectDBX Classes
 90
        0
280
     0
281
     0
  0
CLASS
  1
XRECORD
  2
AcDbXrecord
  3
AutoCAD 2000
 90
        0
280
     0
281
     0
  0
CLASS
  1
LWPOLYLINE
  2
AcDbPolyline
  3
AutoCAD 2000
 90
        0
280
     0
281
     1
  0
CLASS
  1
HATCH
  2
AcDbHatch
  3
AutoCAD 2000
 90
        0
280
     0
281
     1
  0
CLASS
  1
ACDBPLACEHOLDER
  2
AcDbPlaceHolder
  3
ObjectDBX Classes
 90
        0
280
     0
281
     0
  0
CLASS
  1
LAYOUT
  2
AcDbLayout
  3
ObjectDBX Classes
 90
        0
280
     0
281
     0
  0
ENDSEC
  0
SECTION
  2
TABLES
  0
TABLE
  2
VPORT
  5
8
330
0
100
AcDbSymbolTable
 70
     1
  0
VPORT
  5
29
330
8
100
AcDbSymbolTableRecord
100
AcDbViewportTableRecord
  2
*ACTIVE
 70
     0
 10
0.0
 20
0.0
 11
1.0
 21
1.0
 12
0.0
 22
0.1
 13
0.0
 23
0.0
 14
0.5
 24
0.5
 15
0.5
 25
0.5
 16
0.0
 26
0.0
 36
1.0
 17
0.0
 27
0.0
 37
0.0
 40
2.6316
 41
2.0519379845
 42
50.0
 43
0.0
 44
0.0
 50
0.0
 51
0.0
 71
     0
 72
   100
 73
     1
 74
     3
 75
     0
 76
     0
 77
     0
 78
     0
  0
ENDTAB
  0
TABLE
  2
LTYPE
  5
5
330
0
100
AcDbSymbolTable
 70
     6
  0
LTYPE
  5
14
330
5
100
AcDbSymbolTableRecord
100
AcDbLinetypeTableRecord
  2
BYBLOCK
 70
     0
  3

 72
    65
 73
     0
 40
0.0
  0
LTYPE
  5
15
330
5
100
AcDbSymbolTableRecord
100
AcDbLinetypeTableRecord
  2
BYLAYER
 70
     0
  3

 72
    65
 73
     0
 40
0.0
  0
LTYPE
  5
16
330
5
100
AcDbSymbolTableRecord
100
AcDbLinetypeTableRecord
  2
CONTINUOUS
 70
     0
  3
Solid line
 72
    65
 73
     0
 40
0.0
  0
LTYPE
  5
3B
330
5
100
AcDbSymbolTableRecord
100
AcDbLinetypeTableRecord
  2
HIDDEN
 70
     0
  3
Hidden __ __ __ __ __ __ __ __ __ __ __ __ __ __
 72
    65
 73
     2
 40
0.075
 49
0.05
 74
     0
 49
-0.025
 74
     0
  0
LTYPE
  5
3C
330
5
100
AcDbSymbolTableRecord
100
AcDbLinetypeTableRecord
  2
PHANTOM
 70
     0
  3
Phantom ______  __  __  ______  __  __  ______
 72
    65
 73
     6
 40
0.5
 49
0.25
 74
     0
 49
-0.05
 74
     0
 49
0.05
 74
     0
 49
-0.05
 74
     0
 49
0.05
 74
     0
 49
-0.05
 74
     0
  0
LTYPE
  5
3D
330
5
100
AcDbSymbolTableRecord
100
AcDbLinetypeTableRecord
  2
CENTER
 70
     0
  3
Center ____ _ ____ _ ____ _ ____ _ ____ _ ____
 72
    65
 73
     4
 40
0.4
 49
0.25
 74
     0
 49
-0.05
 74
     0
 49
0.05
 74
     0
 49
-0.05
 74
     0
  0
LTYPE
  5
3E
330
5
100
AcDbSymbolTableRecord
100
AcDbLinetypeTableRecord
  2
CENTERX2
 70
     0
  3
Center (2x) ________  __  ________  __  _____
 72
    65
 73
     4
 40
0.8
 49
0.5
 74
     0
 49
-0.1
 74
     0
 49
0.1
 74
     0
 49
-0.1
 74
     0
  0
LTYPE
  5
3F
330
5
100
AcDbSymbolTableRecord
100
AcDbLinetypeTableRecord
  2
DOT2
 70
     0
  3
Dot (.5x) ........................................
 72
    65
 73
     2
 40
0.025
 49
0.0
 74
     0
 49
-0.025
 74
     0
  0
ENDTAB
  0
TABLE
  2
LAYER
  5
2
330
0
100
AcDbSymbolTable
 70
     1
  0
LAYER
  5
10
330
2
100
AcDbSymbolTableRecord
100
AcDbLayerTableRecord
  2
0
 70
     0
 62
     7
  6
CONTINUOUS
  0
ENDTAB
  0
TABLE
  2
STYLE
  5
3
330
0
100
AcDbSymbolTable
 70
     1
  0
STYLE
  5
11
330
3
100
AcDbSymbolTableRecord
100
AcDbTextStyleTableRecord
  2
STANDARD
 70
     0
 40
0.0
 41
1.0
 50
0.0
 71
     0
 42
0.2
  3
txt
  4

  0
ENDTAB
  0
TABLE
  2
VIEW
  5
6
330
0
100
AcDbSymbolTable
 70
     0
  0
ENDTAB
  0
TABLE
  2
UCS
  5
7
330
0
100
AcDbSymbolTable
 70
     0
  0
ENDTAB
  0
TABLE
  2
APPID
  5
9
330
0
100
AcDbSymbolTable
 70
     1
  0
APPID
  5
12
330
9
100
AcDbSymbolTableRecord
100
AcDbRegAppTableRecord
  2
ACAD
 70
     0
  0
ENDTAB
  0
TABLE
  2
DIMSTYLE
  5
A
330
0
100
AcDbSymbolTable
 70
     1
  0
DIMSTYLE
105
27
330
A
100
AcDbSymbolTableRecord
100
AcDbDimStyleTableRecord
  2
STANDARD
 70
     0
  3

  4

  5

  6

  7

 40
1.0
 41
0.18
 42
0.0625
 43
0.38
 44
0.18
 45
0.0
 46
0.0
 47
0.0
 48
0.0
140
0.18
141
0.09
142
0.0
143
25.4
144
1.0
145
0.0
146
1.0
147
0.09
 71
     0
 72
     0
 73
     1
 74
     1
 75
     0
 76
     0
 77
     0
 78
     0
170
     0
171
     2
172
     0
173
     0
174
     0
175
     0
176
     0
177
     0
178
     0
270
     2
271
     4
272
     4
273
     2
274
     2
340
11
275
     0
280
     0
281
     0
282
     0
283
     1
284
     0
285
     0
286
     0
287
     3
288
     0
  0
ENDTAB
  0
TABLE
  2
BLOCK_RECORD
  5
1
330
0
100
AcDbSymbolTable
 70
     1
  0
BLOCK_RECORD
  5
1F
330
1
100
AcDbSymbolTableRecord
100
AcDbBlockTableRecord
  2
*MODEL_SPACE
  0
BLOCK_RECORD
  5
1B
330
1
100
AcDbSymbolTableRecord
100
AcDbBlockTableRecord
  2
*PAPER_SPACE
  0
ENDTAB
  0
ENDSEC
  0
SECTION
  2
BLOCKS
  0
BLOCK
  5
20
330
1F
100
AcDbEntity
  8
0
100
AcDbBlockBegin
  2
*MODEL_SPACE
 70
     0
 10
0.0
 20
0.0
 30
0.0
  3
*MODEL_SPACE
  1

  0
ENDBLK
  5
21
330
1F
100
AcDbEntity
  8
0
100
AcDbBlockEnd
  0
BLOCK
  5
1C
330
1B
100
AcDbEntity
 67
     1
  8
0
100
AcDbBlockBegin
  2
*PAPER_SPACE
 70
     0
 10
0.0
 20
0.0
 30
0.0
  3
*PAPER_SPACE
  1

  0
ENDBLK
  5
1D
330
1B
100
AcDbEntity
 67
     1
  8
0
100
AcDbBlockEnd
  0
ENDSEC
  0
SECTION
  2
ENTITIES
  0
CIRCLE
  5
60
330
1F
100
AcDbEntity
  8
0
  6
CONTINUOUS
 62
     7
100
AcDbCircle
 10
1.295
 20
1.2
 30
0.0
 40
0.0200000000000002
  0
CIRCLE
  5
61
330
1F
100
AcDbEntity
  8
0
  6
CONTINUOUS
 62
     7
100
AcDbCircle
 10
-1.295
 20
1.2
 30
0.0
 40
0.0200000000000002
  0
CIRCLE
  5
6E
330
1F
100
AcDbEntity
  8
0
  6
CONTINUOUS
 62
     7
100
AcDbCircle
 10
1.62
 20
-0.24
 30
0.0
 40
0.0199999999999999
  0
CIRCLE
  5
77
330
1F
100
AcDbEntity
  8
0
  6
CONTINUOUS
 62
     7
100
AcDbCircle
 10
1.295
 20
0.1
 30
0.0
 40
0.0200000000000002
  0
CIRCLE
  5
84
330
1F
100
AcDbEntity
  8
0
  6
CONTINUOUS
 62
     7
100
AcDbCircle
 10
-1.295
 20
0.1
 30
0.0
 40
0.0200000000000002
  0
CIRCLE
  5
8D
330
1F
100
AcDbEntity
  8
0
  6
CONTINUOUS
 62
     7
100
AcDbCircle
 10
-0.52
 20
-0.24
 30
0.0
 40
0.0199999999999999
  0
CIRCLE
  5
8E
330
1F
100
AcDbEntity
  8
0
  6
CONTINUOUS
 62
     7
100
AcDbCircle
 10
-1.62
 20
-0.24
 30
0.0
 40
0.0199999999999999
  0
CIRCLE
  5
97
330
1F
100
AcDbEntity
  8
0
  6
CONTINUOUS
 62
     7
100
AcDbCircle
 10
0.52
 20
-0.24
 30
0.0
 40
0.0199999999999999
  0
SPLINE
  5
A4
330
1F
100
AcDbEntity
  8
0
  6
CONTINUOUS
 62
     7
100
AcDbSpline
210
0.0
220
0.0
230
1.0
 70
     8
 71
     3
 72
    31
 73
    27
 74
     0
 42
0.00000001
 43
0.00000001
 40
0.0
 40
0.0
 40
0.0
 40
0.0
 40
0.042039379701216
 40
0.0835444645653605
 40
0.1246430566734484
 40
0.1653030634519556
 40
0.2061707471365321
 40
0.2469707199288936
 40
0.2883292660238639
 40
0.3299865328252055
 40
0.3717974728955513
 40
0.4127376294246821
 40
0.4534592805187261
 40
0.4940013424196683
 40
0.5343806676011659
 40
0.5749515452974734
 40
0.6158917018266037
 40
0.6572495587215949
 40
0.6990066068243708
 40
0.7404862737502693
 40
0.7823251557075468
 40
0.8245674554627297
 40
0.8670412437308941
 40
0.9104995314822238
 40
0.9546191761738269
 40
0.9999999999999999
 40
0.9999999999999999
 40
0.9999999999999999
 40
0.9999999999999999
 10
-2.130509157974272
 20
0.0573163833958265
 30
0.0
 10
-2.13048820371692
 20
0.0589371020056061
 30
0.0
 10
-2.130446561518025
 20
0.0621579408816191
 30
0.0
 10
-2.129941619936482
 20
0.0669397246397776
 30
0.0
 10
-2.129217154661121
 20
0.0716366022839984
 30
0.0
 10
-2.128152309992291
 20
0.0762447344207615
 30
0.0
 10
-2.126809937365696
 20
0.0807671986633484
 30
0.0
 10
-2.125134603270524
 20
0.0852060948786081
 30
0.0
 10
-2.123184016815554
 20
0.0895640425798607
 30
0.0
 10
-2.120916871297298
 20
0.0938110452567946
 30
0.0
 10
-2.118393861081885
 20
0.0978907465474977
 30
0.0
 10
-2.115655663431214
 20
0.101786723058047
 30
0.0
 10
-2.1126633957054
 20
0.1054280248289915
 30
0.0
 10
-2.109465923282968
 20
0.1088607668864244
 30
0.0
 10
-2.10602509689651
 20
0.1120418238543757
 30
0.0
 10
-2.102373151082827
 20
0.1150006471095391
 30
0.0
 10
-2.098507271441958
 20
0.1177412056057257
 30
0.0
 10
-2.09441529585175
 20
0.1202203329578393
 30
0.0
 10
-2.090158300401497
 20
0.1224472471494655
 30
0.0
 10
-2.085746489320916
 20
0.1243995783195682
 30
0.0
 10
-2.081181209363955
 20
0.1260130946764974
 30
0.0
 10
-2.076496663000569
 20
0.127382141118565
 30
0.0
 10
-2.071657391321668
 20
0.1283945482284615
 30
0.0
 10
-2.066698511916994
 20
0.1291287508026766
 30
0.0
 10
-2.0615941767982
 20
0.1296311366160735
 30
0.0
 10
-2.058143939423147
 20
0.1296715403880828
 30
0.0
 10
-2.056394511547864
 20
0.1296920269451905
 30
0.0
  0
SPLINE
  5
A5
330
1F
100
AcDbEntity
  8
0
  6
CONTINUOUS
 62
     7
100
AcDbSpline
210
0.0
220
0.0
230
1.0
 70
     8
 71
     3
 72
    15
 73
    11
 74
     0
 42
0.00000001
 43
0.00000001
 40
0.0
 40
0.0
 40
0.0
 40
0.0
 40
0.1278956773735358
 40
0.2536684183228693
 40
0.3767384322070097
 40
0.4993444727460728
 40
0.6219993068560803
 40
0.7456985475131269
 40
0.8713451527522131
 40
1.0
 40
1.0
 40
1.0
 40
1.0
 10
-2.1136159871687
 20
0.010887766900773
 30
0.0
 10
-2.114961890000813
 20
0.0125677138696861
 30
0.0
 10
-2.117631355065228
 20
0.0158997224193251
 30
0.0
 10
-2.121067502963625
 20
0.0212383029086348
 30
0.0
 10
-2.12399669205145
 20
0.0267659351987719
 30
0.0
 10
-2.12637337796229
 20
0.032498007181342
 30
0.0
 10
-2.128229208133239
 20
0.0384291572933954
 30
0.0
 10
-2.129560162965816
 20
0.0445518065543229
 30
0.0
 10
-2.130339977500806
 20
0.0508738392526568
 30
0.0
 10
-2.130452321494532
 20
0.0551519992788896
 30
0.0
 10
-2.130509157974272
 20
0.0573163833958265
 30
0.0
  0
SPLINE
  5
A6
330
1F
100
AcDbEntity
  8
0
  6
CONTINUOUS
 62
     7
100
AcDbSpline
210
0.0
220
0.0
230
1.0
 70
     8
 71
     3
 72
    23
 73
    19
 74
     0
 42
0.00000001
 43
0.00000001
 40
0.0
 40
0.0
 40
0.0
 40
0.0
 40
0.0692365237083652
 40
0.136556739323002
 40
0.202094157267331
 40
0.266464260366059
 40
0.3297688228727733
 40
0.3918789659214291
 40
0.4532705931030382
 40
0.5141146640704616
 40
0.574389510365486
 40
0.6341416638513256
 40
0.693923287499325
 40
0.7541521963073894
 40
0.8144701641300343
 40
0.8756606301311712
 40
0.9373480106280031
 40
1.0
 40
1.0
 40
1.0
 40
1.0
 10
-2.053910221723515
 20
-0.0151696730346197
 30
0.0
 10
-2.055465738863828
 20
-0.0151472666869019
 30
0.0
 10
-2.058533719999577
 20
-0.0151030741477536
 30
0.0
 10
-2.063064858900095
 20
-0.0147890053513354
 30
0.0
 10
-2.067471064434651
 20
-0.0143055180955599
 30
0.0
 10
-2.071751694705907
 20
-0.0135753951240098
 30
0.0
 10
-2.075922495579086
 20
-0.0126811174012754
 30
0.0
 10
-2.079962636717787
 20
-0.0115359709926263
 30
0.0
 10
-2.083887508451951
 20
-0.010210431648229
 30
0.0
 10
-2.087703177178007
 20
-0.0087027279681757
 30
0.0
 10
-2.091375009728506
 20
-0.006955812351304
 30
0.0
 10
-2.0949193607904
 20
-0.0050144879620169
 30
0.0
 10
-2.098355822433533
 20
-0.0028887650979355
 30
0.0
 10
-2.101660986408949
 20
-0.00054188140797
 30
0.0
 10
-2.10485207386861
 20
0.0020086091499082
 30
0.0
 10
-2.107908508656223
 20
0.0047678185585597
 30
0.0
 10
-2.110847401493524
 20
0.0077273114617131
 30
0.0
 10
-2.112688364625066
 20
0.0098288472727081
 30
0.0
 10
-2.1136159871687
 20
0.010887766900773
 30
0.0
  0
SPLINE
  5
A7
330
1F
100
AcDbEntity
  8
0
  6
CONTINUOUS
 62
     7
100
AcDbSpline
210
0.0
220
0.0
230
1.0
 70
     8
 71
     3
 72
    23
 73
    19
 74
     0
 42
0.00000001
 43
0.00000001
 40
0.0
 40
0.0
 40
0.0
 40
0.0
 40
0.071272277891841
 40
0.1394927224241748
 40
0.204635418715339
 40
0.267405740386264
 40
0.3284455975269841
 40
0.3883971631415419
 40
0.4477339312582663
 40
0.5073916212312185
 40
0.5667675553634348
 40
0.6254783375164189
 40
0.6840665059187977
 40
0.7432484458153407
 40
0.8040333573982567
 40
0.8664987506996737
 40
0.9317232379841598
 40
1.0
 40
1.0
 40
1.0
 40
1.0
 10
-1.985647457994462
 20
0.0554945708579707
 30
0.0
 10
-1.98571461737946
 20
0.0528604177547874
 30
0.0
 10
-1.98584606042754
 20
0.0477049042997139
 30
0.0
 10
-1.986768064980847
 20
0.0401863896999243
 30
0.0
 10
-1.988256904046451
 20
0.0330851419317368
 30
0.0
 10
-1.990290774592207
 20
0.0263936824173578
 30
0.0
 10
-1.99292365964346
 20
0.0201214937261728
 30
0.0
 10
-1.996127302495804
 20
0.0142622076576172
 30
0.0
 10
-1.999952976553536
 20
0.0088536769148266
 30
0.0
 10
-2.004264411258639
 20
0.0038517476387479
 30
0.0
 10
-2.009102992273836
 20
-0.0006100323680635
 30
0.0
 10
-2.014337977312324
 20
-0.0045315259879601
 30
0.0
 10
-2.019978015436438
 20
-0.0078347785605626
 30
0.0
 10
-2.026017771636815
 20
-0.0105222062142607
 30
0.0
 10
-2.032437473740714
 20
-0.0126196075888614
 30
0.0
 10
-2.03925197688164
 20
-0.0141066775370317
 30
0.0
 10
-2.046452039900701
 20
-0.0149976209759051
 30
0.0
 10
-2.051386554738864
 20
-0.0151114548105894
 30
0.0
 10
-2.053910221723515
 20
-0.0151696730346197
 30
0.0
  0
SPLINE
  5
AB
330
1F
100
AcDbEntity
  8
0
  6
CONTINUOUS
 62
     7
100
AcDbSpline
210
0.0
220
0.0
230
1.0
 70
     8
 71
     3
 72
    23
 73
    19
 74
     0
 42
0.00000001
 43
0.00000001
 40
0.0
 40
0.0
 40
0.0
 40
0.0
 40
0.0706300675154718
 40
0.1386936125963053
 40
0.2049177148347014
 40
0.2694408834246978
 40
0.3326363346470517
 40
0.3953016944998478
 40
0.4577639314714202
 40
0.5206570204257422
 40
0.5828516518872663
 40
0.6433151976010488
 40
0.7025802319030133
 40
0.7609075386276839
 40
0.8194896127674753
 40
0.878269075923359
 40
0.9384913105361306
 40
0.9999999999999999
 40
0.9999999999999999
 40
0.9999999999999999
 40
0.9999999999999999
 10
-2.052833696132964
 20
-0.0010368242561016
 30
0.0
 10
-2.051047147029256
 20
-0.0009994787319664
 30
0.0
 10
-2.047538967609497
 20
-0.0009261447279251
 30
0.0
 10
-2.042382021046276
 20
-0.0003552671929502
 30
0.0
 10
-2.03742914424605
 20
0.0005363388567255
 30
0.0
 10
-2.032694254354064
 20
0.0018420828207324
 30
0.0
 10
-2.028171851964163
 20
0.0035075818363674
 30
0.0
 10
-2.02384535821104
 20
0.0055152742169633
 30
0.0
 10
-2.019748836216947
 20
0.0079421663066361
 30
0.0
 10
-2.015869971116451
 20
0.0106812949320524
 30
0.0
 10
-2.012296853577694
 20
0.0137330599905726
 30
0.0
 10
-2.009074250267075
 20
0.0170261487762092
 30
0.0
 10
-2.006253561715114
 20
0.0205445765972683
 30
0.0
 10
-2.003792746783697
 20
0.0242676205067202
 30
0.0
 10
-2.001756972989875
 20
0.028226097081926
 30
0.0
 10
-2.000085996805857
 20
0.0324006074148601
 30
0.0
 10
-1.998805158552964
 20
0.0367930291446363
 30
0.0
 10
-1.998279372141883
 20
0.0398281327558686
 30
0.0
 10
-1.998013700675666
 20
0.0413617220794526
 30
0.0
  0
SPLINE
  5
AC
330
1F
100
AcDbEntity
  8
0
  6
CONTINUOUS
 62
     7
100
AcDbSpline
210
0.0
220
0.0
230
1.0
 70
     8
 71
     3
 72
    31
 73
    27
 74
     0
 42
0.00000001
 43
0.00000001
 40
0.0
 40
0.0
 40
0.0
 40
0.0
 40
0.0389942033259356
 40
0.0778819264566279
 40
0.1166515665855558
 40
0.1554160645113801
 40
0.1946182927830766
 40
0.2342614639169274
 40
0.2745471077506713
 40
0.3156673089432865
 40
0.3570195563769782
 40
0.3980825120664327
 40
0.4390978641477907
 40
0.4798332779738376
 40
0.5212741319644045
 40
0.5628408280340165
 40
0.6052920613462603
 40
0.6484086595339291
 40
0.6917272922059639
 40
0.7351488851450332
 40
0.7783689248959244
 40
0.821660858302965
 40
0.8655236990058893
 40
0.9097314975427158
 40
0.9545225648198411
 40
1.0
 40
1.0
 40
1.0
 40
1.0
 10
-2.11814291529307
 20
0.0578684478012374
 30
0.0
 10
-2.118113162605385
 20
0.0565979431861605
 30
0.0
 10
-2.118053738474706
 20
0.0540604032813919
 30
0.0
 10
-2.117673410932524
 20
0.0502732350690768
 30
0.0
 10
-2.116967574695018
 20
0.046542313714142
 30
0.0
 10
-2.116023964109615
 20
0.0428553793415609
 30
0.0
 10
-2.11484361703591
 20
0.0392061176121306
 30
0.0
 10
-2.113372252229534
 20
0.0356103495082698
 30
0.0
 10
-2.111629512052041
 20
0.032068208121373
 30
0.0
 10
-2.109612324964343
 20
0.0286116090297017
 30
0.0
 10
-2.107400269708872
 20
0.0252445608691779
 30
0.0
 10
-2.104922195654227
 20
0.02207292615155
 30
0.0
 10
-2.102289889219867
 20
0.0190544703547151
 30
0.0
 10
-2.099407452218536
 20
0.0162562119375691
 30
0.0
 10
-2.096367312759886
 20
0.0136033026349122
 30
0.0
 10
-2.093078640476301
 20
0.011168833267183
 30
0.0
 10
-2.089606102662534
 20
0.008905911090844
 30
0.0
 10
-2.085944401407378
 20
0.0068430559980867
 30
0.0
 10
-2.082133268240403
 20
0.0050002002617696
 30
0.0
 10
-2.078225522055791
 20
0.0033614641938633
 30
0.0
 10
-2.074208678921581
 20
0.0020118839858781
 30
0.0
 10
-2.070103848620405
 20
0.0009119586310501
 30
0.0
 10
-2.06591592453873
 20
0.0000103721263319
 30
0.0
 10
-2.061623648841577
 20
-0.00056964678486
 30
0.0
 10
-2.057258581582333
 20
-0.0009905456395015
 30
0.0
 10
-2.054316115752333
 20
-0.0010213200515318
 30
0.0
 10
-2.052833696132964
 20
-0.0010368242561016
 30
0.0
  0
SPLINE
  5
AD
330
1F
100
AcDbEntity
  8
0
  6
CONTINUOUS
 62
     7
100
AcDbSpline
210
0.0
220
0.0
230
1.0
 70
     8
 71
     3
 72
    31
 73
    27
 74
     0
 42
0.00000001
 43
0.00000001
 40
0.0
 40
0.0
 40
0.0
 40
0.0
 40
0.0428411974873131
 40
0.0855712844305999
 40
0.1277186681017328
 40
0.1700683868047403
 40
0.2127872447034012
 40
0.2554815926170285
 40
0.2988770906153888
 40
0.342860572133053
 40
0.3865275858180495
 40
0.4295323755470757
 40
0.4718862134718292
 40
0.513729302419133
 40
0.555081706254061
 40
0.5965352369663128
 40
0.6381200747249034
 40
0.6798222124149977
 40
0.7213314680361211
 40
0.7618883644915528
 40
0.8021993285625479
 40
0.841806293179727
 40
0.8810604121451822
 40
0.9206332256982775
 40
0.9601011987284018
 40
0.9999999999999999
 40
0.9999999999999999
 40
0.9999999999999999
 40
0.9999999999999999
 10
-2.056808559851922
 20
0.1155591781666725
 30
0.0
 10
-2.058143784259009
 20
0.1155428944700394
 30
0.0
 10
-2.060810770109518
 20
0.1155103693092619
 30
0.0
 10
-2.06477226396974
 20
0.1150952427239889
 30
0.0
 10
-2.068692210309753
 20
0.1144982008332145
 30
0.0
 10
-2.072563209315779
 20
0.1136343473794388
 30
0.0
 10
-2.076392787518933
 20
0.1125395025174094
 30
0.0
 10
-2.080167625794788
 20
0.1111699960907601
 30
0.0
 10
-2.083894765745064
 20
0.1095733329309672
 30
0.0
 10
-2.087539099645001
 20
0.1077283536504292
 30
0.0
 10
-2.091072190335401
 20
0.105701588042944
 30
0.0
 10
-2.094409073628609
 20
0.1034555825081172
 30
0.0
 10
-2.097571018465688
 20
0.101062323065397
 30
0.0
 10
-2.100498594265972
 20
0.0984618908009095
 30
0.0
 10
-2.103208640986574
 20
0.0956778409858607
 30
0.0
 10
-2.105765663502137
 20
0.0927619627921623
 30
0.0
 10
-2.108079730271352
 20
0.0896345919819293
 30
0.0
 10
-2.110169933614384
 20
0.0863532681231059
 30
0.0
 10
-2.112034564260179
 20
0.0829756228753391
 30
0.0
 10
-2.113680574241935
 20
0.0795341665887314
 30
0.0
 10
-2.115062349365307
 20
0.0760403140527076
 30
0.0
 10
-2.116155635006988
 20
0.0724896810760036
 30
0.0
 10
-2.117057629254581
 20
0.0689097365894438
 30
0.0
 10
-2.117692180717946
 20
0.0652756924775915
 30
0.0
 10
-2.118049925685695
 20
0.0615836576201566
 30
0.0
 10
-2.118111806787139
 20
0.0591113246123774
 30
0.0
 10
-2.118142915293069
 20
0.0578684478012374
 30
0.0
  0
SPLINE
  5
AE
330
1F
100
AcDbEntity
  8
0
  6
CONTINUOUS
 62
     7
100
AcDbSpline
210
0.0
220
0.0
230
1.0
 70
     8
 71
     3
 72
    15
 73
    11
 74
     0
 42
0.00000001
 43
0.00000001
 40
0.0
 40
0.0
 40
0.0
 40
0.0
 40
0.1361444912025649
 40
0.2690425392697044
 40
0.3985166179976877
 40
0.5270995386022388
 40
0.6522825446560282
 40
0.7716804045534031
 40
0.8874949318451731
 40
1.0
 40
1.0
 40
1.0
 40
1.0
 10
-2.005080125064925
 20
0.0925932989015806
 30
0.0
 10
-2.006998191526377
 20
0.0943976635869751
 30
0.0
 10
-2.010788587059233
 20
0.097963366851493
 30
0.0
 10
-2.016968124170538
 20
0.1025897839828446
 30
0.0
 10
-2.023415511335651
 20
0.1065530162726944
 30
0.0
 10
-2.030097105701176
 20
0.1097776712504589
 30
0.0
 10
-2.036847442469304
 20
0.1123506145775395
 30
0.0
 10
-2.043576921850046
 20
0.1141824311215164
 30
0.0
 10
-2.050216516391468
 20
0.1153506412576865
 30
0.0
 10
-2.054632548612122
 20
0.1154903408386741
 30
0.0
 10
-2.056808559851922
 20
0.1155591781666725
 30
0.0
  0
SPLINE
  5
B0
330
1F
100
AcDbEntity
  8
0
  6
CONTINUOUS
 62
     7
100
AcDbSpline
210
0.0
220
0.0
230
1.0
 70
     8
 71
     3
 72
    23
 73
    19
 74
     0
 42
0.00000001
 43
0.00000001
 40
0.0
 40
0.0
 40
0.0
 40
0.0
 40
0.0616169448204986
 40
0.1221791608191545
 40
0.1822162704483186
 40
0.2418641286611237
 40
0.3009600556026185
 40
0.3599690678733905
 40
0.4190329181378702
 40
0.4780686870130244
 40
0.5379925810732215
 40
0.5989602303291971
 40
0.6613210788822631
 40
0.7252475688866922
 40
0.791220154152248
 40
0.8587459718448144
 40
0.928317581412213
 40
1.0
 40
1.0
 40
1.0
 40
1.0
 10
-2.056394511547864
 20
0.1296920269451905
 30
0.0
 10
-2.054967809041452
 20
0.1296692123096052
 30
0.0
 10
-2.052138825626583
 20
0.1296239735682438
 30
0.0
 10
-2.047929151126192
 20
0.1293104047465707
 30
0.0
 10
-2.043784544250428
 20
0.128813401553114
 30
0.0
 10
-2.039698859609564
 20
0.1281351816084858
 30
0.0
 10
-2.035686010545544
 20
0.1272114142657348
 30
0.0
 10
-2.031734565450118
 20
0.1261059699881869
 30
0.0
 10
-2.027838796306518
 20
0.1248188903594115
 30
0.0
 10
-2.02401091248113
 20
0.1232838964090074
 30
0.0
 10
-2.020225175629506
 20
0.1215416277111438
 30
0.0
 10
-2.016460536240782
 20
0.1195804693487398
 30
0.0
 10
-2.012729857265293
 20
0.1173668864892709
 30
0.0
 10
-2.009026669020157
 20
0.1148943063504071
 30
0.0
 10
-2.005327619495908
 20
0.1122051954113236
 30
0.0
 10
-2.001691216253629
 20
0.1092226432992666
 30
0.0
 10
-1.998029683015563
 20
0.1060642670847207
 30
0.0
 10
-1.995675280881139
 20
0.1037933149625007
 30
0.0
 10
-1.994480488481036
 20
0.1026408710800583
 30
0.0
  0
LINE
  5
B1
330
1F
100
AcDbEntity
  8
0
  6
CONTINUOUS
 62
     7
100
AcDbLine
 10
0.464473353
 20
-1.19
 30
0.0
 11
0.7213676374
 21
-1.19
 31
0.0
  0
LINE
  5
B2
330
1F
100
AcDbEntity
  8
0
  6
CONTINUOUS
 62
     7
100
AcDbLine
 10
0.464473353
 20
-0.84
 30
0.0
 11
0.464473353
 21
-1.19
 31
0.0
  0
LINE
  5
B3
330
1F
100
AcDbEntity
  8
0
  6
CONTINUOUS
 62
     7
100
AcDbLine
 10
0.0635
 20
-0.84
 30
0.0
 11
0.464473353
 21
-0.84
 31
0.0
  0
LINE
  5
B4
330
1F
100
AcDbEntity
  8
0
  6
CONTINUOUS
 62
     7
100
AcDbLine
 10
0.0635
 20
-0.84
 30
0.0
 11
0.0635
 21
-0.34
 31
0.0
  0
LINE
  5
B5
330
1F
100
AcDbEntity
  8
0
  6
CONTINUOUS
 62
     7
100
AcDbLine
 10
0.0635
 20
-0.34
 30
0.0
 11
-0.0635
 21
-0.34
 31
0.0
  0
LINE
  5
B6
330
1F
100
AcDbEntity
  8
0
  6
CONTINUOUS
 62
     7
100
AcDbLine
 10
-0.0635
 20
-0.34
 30
0.0
 11
-0.0635
 21
-0.84
 31
0.0
  0
LINE
  5
B7
330
1F
100
AcDbEntity
  8
0
  6
CONTINUOUS
 62
     7
100
AcDbLine
 10
-0.0635
 20
-0.84
 30
0.0
 11
-0.464473353
 21
-0.84
 31
0.0
  0
LINE
  5
B8
330
1F
100
AcDbEntity
  8
0
  6
CONTINUOUS
 62
     7
100
AcDbLine
 10
-0.464473353
 20
-0.84
 30
0.0
 11
-0.464473353
 21
-1.19
 31
0.0
  0
LINE
  5
B9
330
1F
100
AcDbEntity
  8
0
  6
CONTINUOUS
 62
     7
100
AcDbLine
 10
-0.7213676374
 20
-1.19
 30
0.0
 11
-0.464473353
 21
-1.19
 31
0.0
  0
LINE
  5
BA
330
1F
100
AcDbEntity
  8
0
  6
CONTINUOUS
 62
     7
100
AcDbLine
 10
-2.27
 20
-1.19
 30
0.0
 11
-1.9084202735
 21
-1.19
 31
0.0
  0
LINE
  5
BB
330
1F
100
AcDbEntity
  8
0
  6
CONTINUOUS
 62
     7
100
AcDbLine
 10
-2.27
 20
-1.19
 30
0.0
 11
-2.52
 21
-0.94
 31
0.0
  0
LINE
  5
BC
330
1F
100
AcDbEntity
  8
0
  6
CONTINUOUS
 62
     7
100
AcDbLine
 10
-2.647
 20
-0.94
 30
0.0
 11
-2.52
 21
-0.94
 31
0.0
  0
LINE
  5
BD
330
1F
100
AcDbEntity
  8
0
  6
CONTINUOUS
 62
     7
100
AcDbLine
 10
-2.647
 20
-0.69
 30
0.0
 11
-2.647
 21
-0.94
 31
0.0
  0
LINE
  5
BE
330
1F
100
AcDbEntity
  8
0
  6
CONTINUOUS
 62
     7
100
AcDbLine
 10
-2.52
 20
-0.69
 30
0.0
 11
-2.647
 21
-0.69
 31
0.0
  0
LINE
  5
BF
330
1F
100
AcDbEntity
  8
0
  6
CONTINUOUS
 62
     7
100
AcDbLine
 10
-2.52
 20
0.44
 30
0.0
 11
-2.52
 21
-0.69
 31
0.0
  0
LINE
  5
C0
330
1F
100
AcDbEntity
  8
0
  6
CONTINUOUS
 62
     7
100
AcDbLine
 10
-2.647
 20
0.44
 30
0.0
 11
-2.52
 21
0.44
 31
0.0
  0
LINE
  5
C1
330
1F
100
AcDbEntity
  8
0
  6
CONTINUOUS
 62
     7
100
AcDbLine
 10
-2.647
 20
0.69
 30
0.0
 11
-2.647
 21
0.44
 31
0.0
  0
LINE
  5
C2
330
1F
100
AcDbEntity
  8
0
  6
CONTINUOUS
 62
     7
100
AcDbLine
 10
-2.52
 20
0.69
 30
0.0
 11
-2.647
 21
0.69
 31
0.0
  0
LINE
  5
C3
330
1F
100
AcDbEntity
  8
0
  6
CONTINUOUS
 62
     7
100
AcDbLine
 10
-2.52
 20
1.39
 30
0.0
 11
-2.52
 21
0.69
 31
0.0
  0
LINE
  5
C4
330
1F
100
AcDbEntity
  8
0
  6
CONTINUOUS
 62
     7
100
AcDbLine
 10
2.52
 20
1.39
 30
0.0
 11
-2.52
 21
1.39
 31
0.0
  0
LINE
  5
C5
330
1F
100
AcDbEntity
  8
0
  6
CONTINUOUS
 62
     7
100
AcDbLine
 10
2.52
 20
0.69
 30
0.0
 11
2.52
 21
1.39
 31
0.0
  0
LINE
  5
C6
330
1F
100
AcDbEntity
  8
0
  6
CONTINUOUS
 62
     7
100
AcDbLine
 10
2.52
 20
0.69
 30
0.0
 11
2.647
 21
0.69
 31
0.0
  0
LINE
  5
C7
330
1F
100
AcDbEntity
  8
0
  6
CONTINUOUS
 62
     7
100
AcDbLine
 10
2.647
 20
0.69
 30
0.0
 11
2.647
 21
0.44
 31
0.0
  0
LINE
  5
C8
330
1F
100
AcDbEntity
  8
0
  6
CONTINUOUS
 62
     7
100
AcDbLine
 10
2.647
 20
0.44
 30
0.0
 11
2.52
 21
0.44
 31
0.0
  0
LINE
  5
C9
330
1F
100
AcDbEntity
  8
0
  6
CONTINUOUS
 62
     7
100
AcDbLine
 10
2.52
 20
-0.69
 30
0.0
 11
2.52
 21
0.44
 31
0.0
  0
LINE
  5
CA
330
1F
100
AcDbEntity
  8
0
  6
CONTINUOUS
 62
     7
100
AcDbLine
 10
2.52
 20
-0.69
 30
0.0
 11
2.647
 21
-0.69
 31
0.0
  0
LINE
  5
CB
330
1F
100
AcDbEntity
  8
0
  6
CONTINUOUS
 62
     7
100
AcDbLine
 10
2.647
 20
-0.69
 30
0.0
 11
2.647
 21
-0.94
 31
0.0
  0
LINE
  5
CC
330
1F
100
AcDbEntity
  8
0
  6
CONTINUOUS
 62
     7
100
AcDbLine
 10
2.647
 20
-0.94
 30
0.0
 11
2.52
 21
-0.94
 31
0.0
  0
LINE
  5
CD
330
1F
100
AcDbEntity
  8
0
  6
CONTINUOUS
 62
     7
100
AcDbLine
 10
2.52
 20
-0.94
 30
0.0
 11
2.27
 21
-1.19
 31
0.0
  0
LINE
  5
CE
330
1F
100
AcDbEntity
  8
0
  6
CONTINUOUS
 62
     7
100
AcDbLine
 10
1.9084202735
 20
-1.19
 30
0.0
 11
2.27
 21
-1.19
 31
0.0
  0
LINE
  5
CF
330
1F
100
AcDbEntity
  8
0
  6
CONTINUOUS
 62
     7
100
AcDbLine
 10
2.31
 20
0.665
 30
0.0
 11
2.1
 21
0.665
 31
0.0
  0
LINE
  5
D0
330
1F
100
AcDbEntity
  8
0
  6
CONTINUOUS
 62
     7
100
AcDbLine
 10
2.31
 20
1.04
 30
0.0
 11
2.31
 21
0.665
 31
0.0
  0
LINE
  5
D1
330
1F
100
AcDbEntity
  8
0
  6
CONTINUOUS
 62
     7
100
AcDbLine
 10
2.1
 20
1.04
 30
0.0
 11
2.31
 21
1.04
 31
0.0
  0
LINE
  5
D2
330
1F
100
AcDbEntity
  8
0
  6
CONTINUOUS
 62
     7
100
AcDbLine
 10
2.1
 20
0.665
 30
0.0
 11
2.1
 21
1.04
 31
0.0
  0
LINE
  5
D3
330
1F
100
AcDbEntity
  8
0
  6
CONTINUOUS
 62
     7
100
AcDbLine
 10
-2.31
 20
1.04
 30
0.0
 11
-2.31
 21
0.665
 31
0.0
  0
LINE
  5
D4
330
1F
100
AcDbEntity
  8
0
  6
CONTINUOUS
 62
     7
100
AcDbLine
 10
-2.31
 20
0.665
 30
0.0
 11
-2.1
 21
0.665
 31
0.0
  0
LINE
  5
D5
330
1F
100
AcDbEntity
  8
0
  6
CONTINUOUS
 62
     7
100
AcDbLine
 10
-2.1
 20
0.665
 30
0.0
 11
-2.1
 21
1.04
 31
0.0
  0
LINE
  5
D6
330
1F
100
AcDbEntity
  8
0
  6
CONTINUOUS
 62
     7
100
AcDbLine
 10
-2.1
 20
1.04
 30
0.0
 11
-2.31
 21
1.04
 31
0.0
  0
LINE
  5
D7
330
1F
100
AcDbEntity
  8
0
  6
CONTINUOUS
 62
     7
100
AcDbLine
 10
-0.0635
 20
0.69
 30
0.0
 11
-0.0635
 21
0.44
 31
0.0
  0
LINE
  5
D8
330
1F
100
AcDbEntity
  8
0
  6
CONTINUOUS
 62
     7
100
AcDbLine
 10
-0.0635
 20
0.44
 30
0.0
 11
0.0635
 21
0.44
 31
0.0
  0
LINE
  5
D9
330
1F
100
AcDbEntity
  8
0
  6
CONTINUOUS
 62
     7
100
AcDbLine
 10
0.0635
 20
0.44
 30
0.0
 11
0.0635
 21
0.69
 31
0.0
  0
LINE
  5
DA
330
1F
100
AcDbEntity
  8
0
  6
CONTINUOUS
 62
     7
100
AcDbLine
 10
0.0635
 20
0.69
 30
0.0
 11
-0.0635
 21
0.69
 31
0.0
  0
LINE
  5
DB
330
1F
100
AcDbEntity
  8
0
  6
CONTINUOUS
 62
     7
100
AcDbLine
 10
1.52
 20
-0.49
 30
0.0
 11
0.62
 21
-0.49
 31
0.0
  0
LINE
  5
DC
330
1F
100
AcDbEntity
  8
0
  6
CONTINUOUS
 62
     7
100
AcDbLine
 10
1.52
 20
0.01
 30
0.0
 11
1.52
 21
-0.49
 31
0.0
  0
LINE
  5
DD
330
1F
100
AcDbEntity
  8
0
  6
CONTINUOUS
 62
     7
100
AcDbLine
 10
0.62
 20
0.01
 30
0.0
 11
1.52
 21
0.01
 31
0.0
  0
LINE
  5
DE
330
1F
100
AcDbEntity
  8
0
  6
CONTINUOUS
 62
     7
100
AcDbLine
 10
0.62
 20
-0.115
 30
0.0
 11
0.62
 21
0.01
 31
0.0
  0
LINE
  5
DF
330
1F
100
AcDbEntity
  8
0
  6
CONTINUOUS
 62
     7
100
AcDbLine
 10
0.565
 20
-0.115
 30
0.0
 11
0.62
 21
-0.115
 31
0.0
  0
LINE
  5
E0
330
1F
100
AcDbEntity
  8
0
  6
CONTINUOUS
 62
     7
100
AcDbLine
 10
0.565
 20
-0.365
 30
0.0
 11
0.565
 21
-0.115
 31
0.0
  0
LINE
  5
E1
330
1F
100
AcDbEntity
  8
0
  6
CONTINUOUS
 62
     7
100
AcDbLine
 10
0.62
 20
-0.365
 30
0.0
 11
0.565
 21
-0.365
 31
0.0
  0
LINE
  5
E2
330
1F
100
AcDbEntity
  8
0
  6
CONTINUOUS
 62
     7
100
AcDbLine
 10
0.62
 20
-0.49
 30
0.0
 11
0.62
 21
-0.365
 31
0.0
  0
LINE
  5
E3
330
1F
100
AcDbEntity
  8
0
  6
CONTINUOUS
 62
     7
100
AcDbLine
 10
-1.4475
 20
-0.828
 30
0.0
 11
-1.4475
 21
-0.955
 31
0.0
  0
LINE
  5
E4
330
1F
100
AcDbEntity
  8
0
  6
CONTINUOUS
 62
     7
100
AcDbLine
 10
-1.4475
 20
-0.955
 30
0.0
 11
-1.1925
 21
-0.955
 31
0.0
  0
LINE
  5
E5
330
1F
100
AcDbEntity
  8
0
  6
CONTINUOUS
 62
     7
100
AcDbLine
 10
-1.1925
 20
-0.955
 30
0.0
 11
-1.1925
 21
-0.828
 31
0.0
  0
LINE
  5
E6
330
1F
100
AcDbEntity
  8
0
  6
CONTINUOUS
 62
     7
100
AcDbLine
 10
-1.1925
 20
-0.828
 30
0.0
 11
-1.4475
 21
-0.828
 31
0.0
  0
LINE
  5
E7
330
1F
100
AcDbEntity
  8
0
  6
CONTINUOUS
 62
     7
100
AcDbLine
 10
-1.42
 20
0.145
 30
0.0
 11
-1.17
 21
0.145
 31
0.0
  0
LINE
  5
E8
330
1F
100
AcDbEntity
  8
0
  6
CONTINUOUS
 62
     7
100
AcDbLine
 10
-1.17
 20
0.145
 30
0.0
 11
-1.17
 21
0.2
 31
0.0
  0
LINE
  5
E9
330
1F
100
AcDbEntity
  8
0
  6
CONTINUOUS
 62
     7
100
AcDbLine
 10
-1.17
 20
0.2
 30
0.0
 11
-1.045
 21
0.2
 31
0.0
  0
LINE
  5
EA
330
1F
100
AcDbEntity
  8
0
  6
CONTINUOUS
 62
     7
100
AcDbLine
 10
-1.045
 20
0.2
 30
0.0
 11
-1.045
 21
1.1
 31
0.0
  0
LINE
  5
EB
330
1F
100
AcDbEntity
  8
0
  6
CONTINUOUS
 62
     7
100
AcDbLine
 10
-1.045
 20
1.1
 30
0.0
 11
-1.545
 21
1.1
 31
0.0
  0
LINE
  5
EC
330
1F
100
AcDbEntity
  8
0
  6
CONTINUOUS
 62
     7
100
AcDbLine
 10
-1.545
 20
1.1
 30
0.0
 11
-1.545
 21
0.2
 31
0.0
  0
LINE
  5
ED
330
1F
100
AcDbEntity
  8
0
  6
CONTINUOUS
 62
     7
100
AcDbLine
 10
-1.545
 20
0.2
 30
0.0
 11
-1.42
 21
0.2
 31
0.0
  0
LINE
  5
EE
330
1F
100
AcDbEntity
  8
0
  6
CONTINUOUS
 62
     7
100
AcDbLine
 10
-1.42
 20
0.2
 30
0.0
 11
-1.42
 21
0.145
 31
0.0
  0
LINE
  5
EF
330
1F
100
AcDbEntity
  8
0
  6
CONTINUOUS
 62
     7
100
AcDbLine
 10
-0.565
 20
-0.365
 30
0.0
 11
-0.565
 21
-0.115
 31
0.0
  0
LINE
  5
F0
330
1F
100
AcDbEntity
  8
0
  6
CONTINUOUS
 62
     7
100
AcDbLine
 10
-0.565
 20
-0.115
 30
0.0
 11
-0.62
 21
-0.115
 31
0.0
  0
LINE
  5
F1
330
1F
100
AcDbEntity
  8
0
  6
CONTINUOUS
 62
     7
100
AcDbLine
 10
-0.62
 20
-0.115
 30
0.0
 11
-0.62
 21
0.01
 31
0.0
  0
LINE
  5
F2
330
1F
100
AcDbEntity
  8
0
  6
CONTINUOUS
 62
     7
100
AcDbLine
 10
-0.62
 20
0.01
 30
0.0
 11
-1.52
 21
0.01
 31
0.0
  0
LINE
  5
F3
330
1F
100
AcDbEntity
  8
0
  6
CONTINUOUS
 62
     7
100
AcDbLine
 10
-1.52
 20
0.01
 30
0.0
 11
-1.52
 21
-0.49
 31
0.0
  0
LINE
  5
F4
330
1F
100
AcDbEntity
  8
0
  6
CONTINUOUS
 62
     7
100
AcDbLine
 10
-1.52
 20
-0.49
 30
0.0
 11
-0.62
 21
-0.49
 31
0.0
  0
LINE
  5
F5
330
1F
100
AcDbEntity
  8
0
  6
CONTINUOUS
 62
     7
100
AcDbLine
 10
-0.62
 20
-0.49
 30
0.0
 11
-0.62
 21
-0.365
 31
0.0
  0
LINE
  5
F6
330
1F
100
AcDbEntity
  8
0
  6
CONTINUOUS
 62
     7
100
AcDbLine
 10
-0.62
 20
-0.365
 30
0.0
 11
-0.565
 21
-0.365
 31
0.0
  0
LINE
  5
F7
330
1F
100
AcDbEntity
  8
0
  6
CONTINUOUS
 62
     7
100
AcDbLine
 10
1.545
 20
1.1
 30
0.0
 11
1.545
 21
0.2
 31
0.0
  0
LINE
  5
F8
330
1F
100
AcDbEntity
  8
0
  6
CONTINUOUS
 62
     7
100
AcDbLine
 10
1.045
 20
1.1
 30
0.0
 11
1.545
 21
1.1
 31
0.0
  0
LINE
  5
F9
330
1F
100
AcDbEntity
  8
0
  6
CONTINUOUS
 62
     7
100
AcDbLine
 10
1.045
 20
0.2
 30
0.0
 11
1.045
 21
1.1
 31
0.0
  0
LINE
  5
FA
330
1F
100
AcDbEntity
  8
0
  6
CONTINUOUS
 62
     7
100
AcDbLine
 10
1.17
 20
0.2
 30
0.0
 11
1.045
 21
0.2
 31
0.0
  0
LINE
  5
FB
330
1F
100
AcDbEntity
  8
0
  6
CONTINUOUS
 62
     7
100
AcDbLine
 10
1.17
 20
0.145
 30
0.0
 11
1.17
 21
0.2
 31
0.0
  0
LINE
  5
FC
330
1F
100
AcDbEntity
  8
0
  6
CONTINUOUS
 62
     7
100
AcDbLine
 10
1.42
 20
0.145
 30
0.0
 11
1.17
 21
0.145
 31
0.0
  0
LINE
  5
FD
330
1F
100
AcDbEntity
  8
0
  6
CONTINUOUS
 62
     7
100
AcDbLine
 10
1.42
 20
0.2
 30
0.0
 11
1.42
 21
0.145
 31
0.0
  0
LINE
  5
FE
330
1F
100
AcDbEntity
  8
0
  6
CONTINUOUS
 62
     7
100
AcDbLine
 10
1.545
 20
0.2
 30
0.0
 11
1.42
 21
0.2
 31
0.0
  0
LINE
  5
FF
330
1F
100
AcDbEntity
  8
0
  6
CONTINUOUS
 62
     7
100
AcDbLine
 10
1.4475
 20
-0.955
 30
0.0
 11
1.1925
 21
-0.955
 31
0.0
  0
LINE
  5
100
330
1F
100
AcDbEntity
  8
0
  6
CONTINUOUS
 62
     7
100
AcDbLine
 10
1.4475
 20
-0.828
 30
0.0
 11
1.4475
 21
-0.955
 31
0.0
  0
LINE
  5
101
330
1F
100
AcDbEntity
  8
0
  6
CONTINUOUS
 62
     7
100
AcDbLine
 10
1.1925
 20
-0.828
 30
0.0
 11
1.4475
 21
-0.828
 31
0.0
  0
LINE
  5
102
330
1F
100
AcDbEntity
  8
0
  6
CONTINUOUS
 62
     7
100
AcDbLine
 10
1.1925
 20
-0.955
 30
0.0
 11
1.1925
 21
-0.828
 31
0.0
  0
LINE
  5
103
330
1F
100
AcDbEntity
  8
0
  6
CONTINUOUS
 62
     7
100
AcDbLine
 10
-1.88
 20
-0.03
 30
0.0
 11
-1.88
 21
-0.29
 31
0.0
  0
LINE
  5
104
330
1F
100
AcDbEntity
  8
0
  6
CONTINUOUS
 62
     7
100
AcDbLine
 10
-1.88
 20
-0.29
 30
0.0
 11
-1.753
 21
-0.29
 31
0.0
  0
LINE
  5
105
330
1F
100
AcDbEntity
  8
0
  6
CONTINUOUS
 62
     7
100
AcDbLine
 10
-1.753
 20
-0.29
 30
0.0
 11
-1.753
 21
-0.03
 31
0.0
  0
LINE
  5
106
330
1F
100
AcDbEntity
  8
0
  6
CONTINUOUS
 62
     7
100
AcDbLine
 10
-1.753
 20
-0.03
 30
0.0
 11
-1.88
 21
-0.03
 31
0.0
  0
LINE
  5
107
330
1F
100
AcDbEntity
  8
0
  6
CONTINUOUS
 62
     7
100
AcDbLine
 10
-1.88
 20
-0.78
 30
0.0
 11
-1.88
 21
-1.04
 31
0.0
  0
LINE
  5
108
330
1F
100
AcDbEntity
  8
0
  6
CONTINUOUS
 62
     7
100
AcDbLine
 10
-1.88
 20
-1.04
 30
0.0
 11
-1.753
 21
-1.04
 31
0.0
  0
LINE
  5
109
330
1F
100
AcDbEntity
  8
0
  6
CONTINUOUS
 62
     7
100
AcDbLine
 10
-1.753
 20
-1.04
 30
0.0
 11
-1.753
 21
-0.78
 31
0.0
  0
LINE
  5
10A
330
1F
100
AcDbEntity
  8
0
  6
CONTINUOUS
 62
     7
100
AcDbLine
 10
-1.753
 20
-0.78
 30
0.0
 11
-1.88
 21
-0.78
 31
0.0
  0
LINE
  5
10B
330
1F
100
AcDbEntity
  8
0
  6
CONTINUOUS
 62
     7
100
AcDbLine
 10
-2.0439454592
 20
0.0554945709
 30
0.0
 11
-1.985647458
 21
0.0554945709
 31
0.0
  0
LINE
  5
10C
330
1F
100
AcDbEntity
  8
0
  6
CONTINUOUS
 62
     7
100
AcDbLine
 10
-2.0439454592
 20
0.0413617221
 30
0.0
 11
-2.0439454592
 21
0.0554945709
 31
0.0
  0
LINE
  5
10D
330
1F
100
AcDbEntity
  8
0
  6
CONTINUOUS
 62
     7
100
AcDbLine
 10
-1.9980137007
 20
0.0413617221
 30
0.0
 11
-2.0439454592
 21
0.0413617221
 31
0.0
  0
LINE
  5
10E
330
1F
100
AcDbEntity
  8
0
  6
CONTINUOUS
 62
     7
100
AcDbLine
 10
-1.9944804885
 20
0.1026408711
 30
0.0
 11
-2.0050801251
 21
0.0925932989
 31
0.0
  0
ARC
  5
10F
330
1F
100
AcDbEntity
  8
0
  6
CONTINUOUS
 62
     7
100
AcDbCircle
 10
-1.3148939555
 20
-2.4767149177
 30
0.0
 40
1.417006975852372
100
AcDbArc
 50
65.2374190678
 51
114.7625809322
  0
ARC
  5
110
330
1F
100
AcDbEntity
  8
0
  6
CONTINUOUS
 62
     7
100
AcDbCircle
 10
1.3148939555
 20
-2.4767149177
 30
0.0
 40
1.417006975852372
100
AcDbArc
 50
65.2374190678
 51
114.7625809322
  0
ENDSEC
  0
SECTION
  2
OBJECTS
  0
DICTIONARY
  5
C
330
0
100
AcDbDictionary
  3
ACAD_GROUP
350
D
  3
ACAD_LAYOUT
350
1A
  3
ACAD_MLEADERSTYLE
350
133
  3
ACAD_MLINESTYLE
350
17
  3
ACAD_PLOTSETTINGS
350
19
  3
ACAD_VISUALSTYLE
350
2A
  3
ACDBHEADERROUNDTRIPXREC
350
111
  3
ACDBVARIABLEDICTIONARY
350
131
  0
DICTIONARY
  5
D
102
{ACAD_REACTORS
330
C
102
}
330
C
100
AcDbDictionary
  0
DICTIONARY
  5
1A
102
{ACAD_REACTORS
330
C
102
}
330
C
100
AcDbDictionary
  0
DICTIONARY
  5
133
102
{ACAD_REACTORS
330
C
102
}
330
C
100
AcDbDictionary
  0
DICTIONARY
  5
17
102
{ACAD_REACTORS
330
C
102
}
330
C
100
AcDbDictionary
  3
STANDARD
350
18
  0
DICTIONARY
  5
19
102
{ACAD_REACTORS
330
C
102
}
330
C
100
AcDbDictionary
  0
DICTIONARY
  5
2A
102
{ACAD_REACTORS
330
C
102
}
330
C
100
AcDbDictionary
  3
2DWIREFRAME
350
2F
  3
3D_HIDDEN
350
31
  3
3DWIREFRAME
350
30
  3
BASIC
350
32
  3
BRIGHTEN
350
36
  3
COLORCHANGE
350
3A
  3
CONCEPTUAL
350
34
  3
DIM
350
35
  3
FACEPATTERN
350
39
  3
FLAT
350
2B
  3
FLATWITHEDGES
350
2C
  3
GOURAUD
350
2D
  3
GOURAUDWITHEDGES
350
2E
  3
LINEPATTERN
350
38
  3
REALISTIC
350
33
  3
THICKEN
350
37
  0
DICTIONARY
  5
111
102
{ACAD_REACTORS
330
C
102
}
330
C
100
AcDbDictionary
  3
CEPSNTYPE
350
11A
  3
DIMSTYLEDATA
350
130
  3
FINGERPRINTGUID
350
11B
  3
HYPERLINKBASE
350
114
  3
INSUNITS
350
119
  3
LAYOUTDICT
350
116
  3
LWETCUNION
350
118
  3
PLOTSETDICT
350
117
  3
PSVPSCALE
350
11D
  3
PUCSBASE
350
120
  3
PUCSORGBACK
350
126
  3
PUCSORGBOTTOM
350
122
  3
PUCSORGFRONT
350
125
  3
PUCSORGLEFT
350
123
  3
PUCSORGRIGHT
350
124
  3
PUCSORGTOP
350
121
  3
PUCSORTHOREF
350
11E
  3
PUCSORTHOVIEW
350
11F
  3
STYLESHEET
350
115
  3
TSTACKALIGN
350
112
  3
TSTACKSIZE
350
113
  3
UCSBASE
350
129
  3
UCSORGBACK
350
12F
  3
UCSORGBOTTOM
350
12B
  3
UCSORGFRONT
350
12E
  3
UCSORGLEFT
350
12C
  3
UCSORGRIGHT
350
12D
  3
UCSORGTOP
350
12A
  3
UCSORTHOREF
350
127
  3
UCSORTHOVIEW
350
128
  3
VERSIONGUID
350
11C
  0
DICTIONARY
  5
131
102
{ACAD_REACTORS
330
C
102
}
330
C
100
AcDbDictionary
  3
DIMASSOC
350
134
  3
HIDETEXT
350
135
  0
MLINESTYLE
  5
18
102
{ACAD_REACTORS
330
17
102
}
330
17
100
AcDbMlineStyle
  2
Standard
 70
     0
  3

 62
   256
 51
90.0
 52
90.0
 71
     2
 49
0.5
 62
   256
  6
BYLAYER
 49
-0.5
 62
   256
  6
BYLAYER
  0
ACAD_PROXY_OBJECT
  5
2F
102
{ACAD_REACTORS
330
2A
102
}
330
2A
100
AcDbProxyObject
 90
      499
 91
      501
 93
      436
310
42CC9915DA5C99599C985B595049028333333333333E3BF0000000000000FB0107901411070040501600405405064090741402480A0340
1001
ACAD
1000
AcDbSavedByObjectVersion
1070
     0
  0
ACAD_PROXY_OBJECT
  5
31
102
{ACAD_REACTORS
330
2A
102
}
330
2A
100
AcDbProxyObject
 90
      499
 91
      501
 93
      500
310
424CD108121A5919195B90640502408333333333333E3BF0000000000000FB01079024090700405020000000000001110200405405064090740C02480A0340
1001
ACAD
1000
AcDbSavedByObjectVersion
1070
     0
  0
ACAD_PROXY_OBJECT
  5
30
102
{ACAD_REACTORS
330
2A
102
}
330
2A
100
AcDbProxyObject
 90
      499
 91
      501
 93
      436
310
42CCD915DA5C99599C985B595059028333333333333E3BF0000000000000FB0107901411070040501600405405064090741402480A0340
1001
ACAD
1000
AcDbSavedByObjectVersion
1070
     0
  0
ACAD_PROXY_OBJECT
  5
32
102
{ACAD_REACTORS
330
2A
102
}
330
2A
100
AcDbProxyObject
 90
      499
 91
      501
 93
      388
310
4150985CDA58D07406404333333333333E3BF0000000000000FB0107A41107004050150841D405064090741402480A0350
1001
ACAD
1000
AcDbSavedByObjectVersion
1070
     0
  0
ACAD_PROXY_OBJECT
  5
36
102
{ACAD_REACTORS
330
2A
102
}
330
2A
100
AcDbProxyObject
 90
      499
 91
      501
 93
      428
310
42109C9A59DA1D195B90C409028333333333333E3BF0000000000000FB010790141107004050150841D405064090741402480A029950
1001
ACAD
1000
AcDbSavedByObjectVersion
1070
     0
  0
ACAD_PROXY_OBJECT
  5
3A
102
{ACAD_REACTORS
330
2A
102
}
330
2A
100
AcDbProxyObject
 90
      499
 91
      501
 93
      452
310
42D0DBDB1BDC90DA185B99D95104090240C333333333333E3BF0000000000000FB0108901411070040501508421405064090741402480A0350
1001
ACAD
1000
AcDbSavedByObjectVersion
1070
     0
  0
ACAD_PROXY_OBJECT
  5
34
102
{ACAD_REACTORS
330
2A
102
}
330
2A
100
AcDbProxyObject
 90
      499
 91
      501
 93
      500
310
4290DBDB98D95C1D1D585B10940D028333333333333E3BF0000000000000FB0107902409070040501000000000000111010841D405064090740C02480A0340
1001
ACAD
1000
AcDbSavedByObjectVersion
1070
     0
  0
ACAD_PROXY_OBJECT
  5
35
102
{ACAD_REACTORS
330
2A
102
}
330
2A
100
AcDbProxyObject
 90
      499
 91
      501
 93
      412
310
40D11A5B50B409028333333333333E3BF0000000000000FB010790141107004050150841D405064090741402480A02677FFFFFD0
1001
ACAD
1000
AcDbSavedByObjectVersion
1070
     0
  0
ACAD_PROXY_OBJECT
  5
39
102
{ACAD_REACTORS
330
2A
102
}
330
2A
100
AcDbProxyObject
 90
      499
 91
      501
 93
      444
310
42D19858D95C185D1D195C9B90F409028333333333333E3BF0000000000000FB010790141107004050150841D405064090741402480A0350
1001
ACAD
1000
AcDbSavedByObjectVersion
1070
     0
  0
ACAD_PROXY_OBJECT
  5
2B
102
{ACAD_REACTORS
330
2A
102
}
330
2A
100
AcDbProxyObject
 90
      499
 91
      501
 93
      388
310
41119B185D240901404333333333333E3BF0000000000000F9010740A41107004050150841D405064090741402480A1B50
1001
ACAD
1000
AcDbSavedByObjectVersion
1070
     0
  0
ACAD_PROXY_OBJECT
  5
2C
102
{ACAD_REACTORS
330
2A
102
}
330
2A
100
AcDbProxyObject
 90
      499
 91
      501
 93
      476
310
43519B185D15DA5D1A115919D95CD0140901404333333333333E3BF0000000000000F9010740901411070040501600405405064090741402480A1B50
1001
ACAD
1000
AcDbSavedByObjectVersion
1070
     0
  0
ACAD_PROXY_OBJECT
  5
2D
102
{ACAD_REACTORS
330
2A
102
}
330
2A
100
AcDbProxyObject
 90
      499
 91
      501
 93
      412
310
41D1DBDD5C985D5910240902404333333333333E3BF0000000000000F9010740A411070040501641D405064090741402480A1B50
1001
ACAD
1000
AcDbSavedByObjectVersion
1070
     0
  0
ACAD_PROXY_OBJECT
  5
2E
102
{ACAD_REACTORS
330
2A
102
}
330
2A
100
AcDbProxyObject
 90
      499
 91
      501
 93
      500
310
4411DBDD5C985D5915DA5D1A115919D95CD0340902404333333333333E3BF0000000000000F9010740901411070040501600405405064090741402480A1B50
1001
ACAD
1000
AcDbSavedByObjectVersion
1070
     0
  0
ACAD_PROXY_OBJECT
  5
38
102
{ACAD_REACTORS
330
2A
102
}
330
2A
100
AcDbProxyObject
 90
      499
 91
      501
 93
      444
310
42D31A5B995C185D1D195C9B90E409028333333333333E3BF0000000000000FB010790141107004050750841D405064090741402483A0350
1001
ACAD
1000
AcDbSavedByObjectVersion
1070
     0
  0
ACAD_PROXY_OBJECT
  5
33
102
{ACAD_REACTORS
330
2A
102
}
330
2A
100
AcDbProxyObject
 90
      499
 91
      501
 93
      420
310
425499585B1A5CDD1A58D08409028333333333333E3BF0000000000000FB01079019070040501508421405064090741402480A1B40
1001
ACAD
1000
AcDbSavedByObjectVersion
1070
     0
  0
ACAD_PROXY_OBJECT
  5
37
102
{ACAD_REACTORS
330
2A
102
}
330
2A
100
AcDbProxyObject
 90
      499
 91
      501
 93
      412
310
41D51A1A58DAD95B90D409028333333333333E3BF0000000000000FB010790141107004050150C41D405064090741402480A0350
1001
ACAD
1000
AcDbSavedByObjectVersion
1070
     0
  0
ACAD_PROXY_OBJECT
  5
11A
102
{ACAD_REACTORS
330
111
102
}
330
111
100
AcDbProxyObject
 90
      499
 91
      503
 93
       58
310
4196800000000000
  0
ACAD_PROXY_OBJECT
  5
130
102
{ACAD_REACTORS
330
111
102
}
330
111
100
AcDbProxyObject
 90
      499
 91
      503
 93
     1122
310
62FA00C180079114D51653117A80C040079ECB812CC0118000800B810A400A00291C0F42B5E8F00FCB8103C0518000C00B810B000A0002A150A8540A290FCB810A800A0002A150A8540A290FCB8124C00A002E07A17AD46E2B8FCB811340118000400B810400518000C00B811500550044400000000000000B8123000A001A
310
4D06A351A8F04FFA80C040079F40
  0
ACAD_PROXY_OBJECT
  5
11B
102
{ACAD_REACTORS
330
111
102
}
330
111
100
AcDbProxyObject
 90
      499
 91
      503
 93
      354
310
4AC0400980079ECC8E4C8E4D0C904DCB4DCCCD8C8B4D0C0C50CB508D4D518B508D510E10CD910C505110CD5F40
  0
ACAD_PROXY_OBJECT
  5
114
102
{ACAD_REACTORS
330
111
102
}
330
111
100
AcDbProxyObject
 90
      499
 91
      503
 93
       50
310
41404000000780
  0
ACAD_PROXY_OBJECT
  5
119
102
{ACAD_REACTORS
330
111
102
}
330
111
100
AcDbProxyObject
 90
      499
 91
      503
 93
       58
310
4196800040000000
  0
ACAD_PROXY_OBJECT
  5
116
102
{ACAD_REACTORS
330
111
102
}
330
111
100
AcDbProxyObject
 90
      499
 91
      503
 93
       90
310
429500468000000000000000
  0
ACAD_PROXY_OBJECT
  5
118
102
{ACAD_REACTORS
330
111
102
}
330
111
100
AcDbProxyObject
 90
      499
 91
      503
 93
       58
310
419680074A000000
  0
ACAD_PROXY_OBJECT
  5
117
102
{ACAD_REACTORS
330
111
102
}
330
111
100
AcDbProxyObject
 90
      499
 91
      503
 93
       90
310
429500464000000000000000
  0
ACAD_PROXY_OBJECT
  5
11D
102
{ACAD_REACTORS
330
111
102
}
330
111
100
AcDbProxyObject
 90
      499
 91
      503
 93
       90
310
428A00000000000000000000
  0
ACAD_PROXY_OBJECT
  5
120
102
{ACAD_REACTORS
330
111
102
}
330
111
100
AcDbProxyObject
 90
      499
 91
      503
 93
       90
310
429500400000000000000000
  0
ACAD_PROXY_OBJECT
  5
126
102
{ACAD_REACTORS
330
111
102
}
330
111
100
AcDbProxyObject
 90
      499
 91
      503
 93
      218
310
46828000000000000000000000000000000000000000000000000000
  0
ACAD_PROXY_OBJECT
  5
122
102
{ACAD_REACTORS
330
111
102
}
330
111
100
AcDbProxyObject
 90
      499
 91
      503
 93
      218
310
46828000000000000000000000000000000000000000000000000000
  0
ACAD_PROXY_OBJECT
  5
125
102
{ACAD_REACTORS
330
111
102
}
330
111
100
AcDbProxyObject
 90
      499
 91
      503
 93
      218
310
46828000000000000000000000000000000000000000000000000000
  0
ACAD_PROXY_OBJECT
  5
123
102
{ACAD_REACTORS
330
111
102
}
330
111
100
AcDbProxyObject
 90
      499
 91
      503
 93
      218
310
46828000000000000000000000000000000000000000000000000000
  0
ACAD_PROXY_OBJECT
  5
124
102
{ACAD_REACTORS
330
111
102
}
330
111
100
AcDbProxyObject
 90
      499
 91
      503
 93
      218
310
46828000000000000000000000000000000000000000000000000000
  0
ACAD_PROXY_OBJECT
  5
121
102
{ACAD_REACTORS
330
111
102
}
330
111
100
AcDbProxyObject
 90
      499
 91
      503
 93
      218
310
46828000000000000000000000000000000000000000000000000000
  0
ACAD_PROXY_OBJECT
  5
11E
102
{ACAD_REACTORS
330
111
102
}
330
111
100
AcDbProxyObject
 90
      499
 91
      503
 93
       90
310
429500400000000000000000
  0
ACAD_PROXY_OBJECT
  5
11F
102
{ACAD_REACTORS
330
111
102
}
330
111
100
AcDbProxyObject
 90
      499
 91
      503
 93
       42
310
411180000000
  0
ACAD_PROXY_OBJECT
  5
115
102
{ACAD_REACTORS
330
111
102
}
330
111
100
AcDbProxyObject
 90
      499
 91
      503
 93
       50
310
41404000000780
  0
ACAD_PROXY_OBJECT
  5
112
102
{ACAD_REACTORS
330
111
102
}
330
111
100
AcDbProxyObject
 90
      499
 91
      503
 93
       58
310
4196800040000000
  0
ACAD_PROXY_OBJECT
  5
113
102
{ACAD_REACTORS
330
111
102
}
330
111
100
AcDbProxyObject
 90
      499
 91
      503
 93
       58
310
4196801180000000
  0
ACAD_PROXY_OBJECT
  5
129
102
{ACAD_REACTORS
330
111
102
}
330
111
100
AcDbProxyObject
 90
      499
 91
      503
 93
       90
310
429500400000000000000000
  0
ACAD_PROXY_OBJECT
  5
12F
102
{ACAD_REACTORS
330
111
102
}
330
111
100
AcDbProxyObject
 90
      499
 91
      503
 93
      218
310
46828000000000000000000000000000000000000000000000000000
  0
ACAD_PROXY_OBJECT
  5
12B
102
{ACAD_REACTORS
330
111
102
}
330
111
100
AcDbProxyObject
 90
      499
 91
      503
 93
      218
310
46828000000000000000000000000000000000000000000000000000
  0
ACAD_PROXY_OBJECT
  5
12E
102
{ACAD_REACTORS
330
111
102
}
330
111
100
AcDbProxyObject
 90
      499
 91
      503
 93
      218
310
46828000000000000000000000000000000000000000000000000000
  0
ACAD_PROXY_OBJECT
  5
12C
102
{ACAD_REACTORS
330
111
102
}
330
111
100
AcDbProxyObject
 90
      499
 91
      503
 93
      218
310
46828000000000000000000000000000000000000000000000000000
  0
ACAD_PROXY_OBJECT
  5
12D
102
{ACAD_REACTORS
330
111
102
}
330
111
100
AcDbProxyObject
 90
      499
 91
      503
 93
      218
310
46828000000000000000000000000000000000000000000000000000
  0
ACAD_PROXY_OBJECT
  5
12A
102
{ACAD_REACTORS
330
111
102
}
330
111
100
AcDbProxyObject
 90
      499
 91
      503
 93
      218
310
46828000000000000000000000000000000000000000000000000000
  0
ACAD_PROXY_OBJECT
  5
127
102
{ACAD_REACTORS
330
111
102
}
330
111
100
AcDbProxyObject
 90
      499
 91
      503
 93
       90
310
429500400000000000000000
  0
ACAD_PROXY_OBJECT
  5
128
102
{ACAD_REACTORS
330
111
102
}
330
111
100
AcDbProxyObject
 90
      499
 91
      503
 93
       42
310
411180000000
  0
ACAD_PROXY_OBJECT
  5
11C
102
{ACAD_REACTORS
330
111
102
}
330
111
100
AcDbProxyObject
 90
      499
 91
      503
 93
      354
310
4AC0400980079ED19051508C50CCCC8B514C0C4E4B4C4C510D4B4E4C8E508B4C0C10CC11118C8D4D9150CD1F40
  0
DICTIONARYVAR
  5
134
102
{ACAD_REACTORS
330
131
102
}
330
131
100
DictionaryVariables
280
     0
  1
2
  0
DICTIONARYVAR
  5
135
102
{ACAD_REACTORS
330
131
102
}
330
131
100
DictionaryVariables
280
     0
  1
1
  0
ENDSEC
  0
EOF
