  999
DXF file created by gear template generator.  2013-04-06T12:51:08
  0
SECTION
  2
ENTITIES
 0
LWPOLYLINE
 8
a
 90
450
 70
1
 10
0.31937
 20
0.65594
 10
0.30962
 20
0.66707
 10
0.30356
 20
0.6704
 10
0.29813
 20
0.67236
 10
0.29304
 20
0.67358
 10
0.28818
 20
0.67431
 10
0.28348
 20
0.67467
 10
0.27445
 20
0.67456
 10
0.26578
 20
0.67362
 10
0.25737
 20
0.67204
 10
0.24119
 20
0.66737
 10
0.22529
 20
0.66202
 10
0.20847
 20
0.65896
 10
0.19108
 20
0.65738
 10
0.17326
 20
0.65699
 10
0.1551
 20
0.65766
 10
0.13663
 20
0.65931
 10
0.11791
 20
0.66189
 10
0.09898
 20
0.66536
 10
0.07985
 20
0.66972
 10
0.06057
 20
0.67493
 10
0.04117
 20
0.68099
 10
0.00849
 20
0.83161
 10
0.02364
 20
0.84516
 10
0.03903
 20
0.8579
 10
0.05463
 20
0.86978
 10
0.07042
 20
0.8808
 10
0.08639
 20
0.8909
 10
0.10251
 20
0.90005
 10
0.11877
 20
0.90819
 10
0.13515
 20
0.91521
 10
0.15163
 20
0.92098
 10
0.1682
 20
0.92517
 10
0.18489
 20
0.92689
 10
0.20156
 20
0.92934
 10
0.20986
 20
0.93138
 10
0.21814
 20
0.93413
 10
0.22641
 20
0.93777
 10
0.23053
 20
0.94005
 10
0.23466
 20
0.94272
 10
0.23878
 20
0.94594
 10
0.2429
 20
0.94998
 10
0.24704
 20
0.95552
 10
0.2513
 20
0.96969
 10
0.2548
 20
1.02997
 10
0.26341
 20
1.08974
 10
0.26207
 20
1.10447
 10
0.25912
 20
1.11073
 10
0.25588
 20
1.11551
 10
0.25249
 20
1.11949
 10
0.24898
 20
1.12293
 10
0.24539
 20
1.12598
 10
0.23802
 20
1.13121
 10
0.23045
 20
1.13555
 10
0.22273
 20
1.13921
 10
0.20689
 20
1.14494
 10
0.19088
 20
1.14996
 10
0.17547
 20
1.15737
 10
0.16047
 20
1.16632
 10
0.14583
 20
1.17647
 10
0.13153
 20
1.18769
 10
0.11756
 20
1.19987
 10
0.10393
 20
1.21296
 10
0.09065
 20
1.22691
 10
0.07774
 20
1.24167
 10
0.06521
 20
1.25722
 10
0.05307
 20
1.27353
 10
0.11517
 20
1.41459
 10
0.13539
 20
1.41665
 10
0.15532
 20
1.41791
 10
0.17493
 20
1.41835
 10
0.19418
 20
1.41798
 10
0.21304
 20
1.41677
 10
0.23146
 20
1.4147
 10
0.24939
 20
1.41172
 10
0.26677
 20
1.40778
 10
0.2835
 20
1.40276
 10
0.29937
 20
1.39641
 10
0.31388
 20
1.38799
 10
0.3288
 20
1.38018
 10
0.33672
 20
1.37695
 10
0.34503
 20
1.3743
 10
0.35386
 20
1.37239
 10
0.35854
 20
1.37181
 10
0.36345
 20
1.37155
 10
0.36868
 20
1.37173
 10
0.37439
 20
1.37257
 10
0.38099
 20
1.37462
 10
0.39277
 20
1.38358
 10
0.43103
 20
1.4303
 10
0.47313
 20
1.47358
 10
0.4807
 20
1.48629
 10
0.48199
 20
1.49309
 10
0.48218
 20
1.49886
 10
0.48177
 20
1.50407
 10
0.48096
 20
1.50892
 10
0.47985
 20
1.5135
 10
0.47696
 20
1.52206
 10
0.47339
 20
1.53002
 10
0.46929
 20
1.53752
 10
0.45984
 20
1.55146
 10
0.44984
 20
1.56494
 10
0.44173
 20
1.57999
 10
0.43486
 20
1.59604
 10
0.42898
 20
1.61286
 10
0.424
 20
1.63035
 10
0.41986
 20
1.64842
 10
0.41653
 20
1.66702
 10
0.41399
 20
1.6861
 10
0.41222
 20
1.70564
 10
0.41122
 20
1.72558
 10
0.41098
 20
1.74591
 10
0.54414
 20
1.82353
 10
0.56171
 20
1.81331
 10
0.57857
 20
1.80261
 10
0.5947
 20
1.79145
 10
0.61005
 20
1.77983
 10
0.6246
 20
1.76777
 10
0.63828
 20
1.75526
 10
0.65104
 20
1.74231
 10
0.66279
 20
1.72891
 10
0.67336
 20
1.71502
 10
0.68247
 20
1.70055
 10
0.68926
 20
1.68521
 10
0.69674
 20
1.67012
 10
0.70125
 20
1.66285
 10
0.70642
 20
1.65582
 10
0.71244
 20
1.64909
 10
0.71588
 20
1.64587
 10
0.7197
 20
1.64277
 10
0.72404
 20
1.63985
 10
0.72915
 20
1.63717
 10
0.7357
 20
1.63494
 10
0.75049
 20
1.63527
 10
0.8089
 20
1.65058
 10
0.86841
 20
1.66085
 10
0.88201
 20
1.66668
 10
0.88704
 20
1.67142
 10
0.89059
 20
1.67598
 10
0.89332
 20
1.68044
 10
0.89552
 20
1.68484
 10
0.89731
 20
1.68919
 10
0.9
 20
1.69782
 10
0.90179
 20
1.70635
 10
0.90288
 20
1.71484
 10
0.90344
 20
1.73167
 10
0.90326
 20
1.74845
 10
0.90555
 20
1.76539
 10
0.90943
 20
1.78242
 10
0.91456
 20
1.79948
 10
0.92081
 20
1.81655
 10
0.92808
 20
1.8336
 10
0.93632
 20
1.85061
 10
0.94548
 20
1.86755
 10
0.95553
 20
1.88439
 10
0.96644
 20
1.90111
 10
0.9782
 20
1.9177
 10
1.13155
 20
1.90223
 10
1.13976
 20
1.88363
 10
1.14711
 20
1.86506
 10
1.1536
 20
1.84655
 10
1.15919
 20
1.82813
 10
1.16387
 20
1.80982
 10
1.16759
 20
1.79166
 10
1.1703
 20
1.77368
 10
1.17192
 20
1.75594
 10
1.17231
 20
1.73848
 10
1.17118
 20
1.72142
 10
1.16765
 20
1.70502
 10
1.16484
 20
1.68841
 10
1.16421
 20
1.67988
 10
1.16426
 20
1.67116
 10
1.16518
 20
1.66217
 10
1.16606
 20
1.65755
 10
1.16734
 20
1.6528
 10
1.16912
 20
1.64788
 10
1.17169
 20
1.64271
 10
1.17568
 20
1.63706
 10
1.18783
 20
1.62863
 10
1.24409
 20
1.60668
 10
1.29827
 20
1.58002
 10
1.3127
 20
1.57674
 10
1.31956
 20
1.57761
 10
1.3251
 20
1.57922
 10
1.32994
 20
1.58122
 10
1.3343
 20
1.58349
 10
1.33831
 20
1.58596
 10
1.34555
 20
1.59135
 10
1.35202
 20
1.59721
 10
1.35789
 20
1.60343
 10
1.36823
 20
1.61672
 10
1.37795
 20
1.63039
 10
1.38977
 20
1.64276
 10
1.40291
 20
1.65425
 10
1.41709
 20
1.66504
 10
1.43218
 20
1.67518
 10
1.44809
 20
1.6847
 10
1.46475
 20
1.69362
 10
1.48211
 20
1.70193
 10
1.50014
 20
1.70965
 10
1.5188
 20
1.71677
 10
1.53806
 20
1.72327
 10
1.65303
 20
1.62062
 10
1.64874
 20
1.60075
 10
1.64378
 20
1.58141
 10
1.63814
 20
1.56262
 10
1.63184
 20
1.54443
 10
1.62486
 20
1.52687
 10
1.6172
 20
1.50999
 10
1.60883
 20
1.49385
 10
1.59971
 20
1.47854
 10
1.58977
 20
1.46419
 10
1.57882
 20
1.45105
 10
1.56632
 20
1.43985
 10
1.55428
 20
1.42808
 10
1.54877
 20
1.42154
 10
1.54368
 20
1.41446
 10
1.53914
 20
1.40665
 10
1.53713
 20
1.40238
 10
1.53537
 20
1.39779
 10
1.53393
 20
1.39277
 10
1.53296
 20
1.38708
 10
1.53287
 20
1.38016
 10
1.53775
 20
1.36619
 10
1.57036
 20
1.31537
 10
1.59852
 20
1.26195
 10
1.60827
 20
1.25082
 10
1.61433
 20
1.24749
 10
1.61976
 20
1.24553
 10
1.62485
 20
1.24431
 10
1.62971
 20
1.24358
 10
1.6344
 20
1.24322
 10
1.64344
 20
1.24333
 10
1.65211
 20
1.24427
 10
1.66052
 20
1.24585
 10
1.6767
 20
1.25052
 10
1.6926
 20
1.25587
 10
1.70942
 20
1.25893
 10
1.72681
 20
1.26051
 10
1.74463
 20
1.2609
 10
1.76279
 20
1.26023
 10
1.78126
 20
1.25858
 10
1.79998
 20
1.256
 10
1.81891
 20
1.25252
 10
1.83804
 20
1.24817
 10
1.85732
 20
1.24296
 10
1.87672
 20
1.2369
 10
1.9094
 20
1.08628
 10
1.89425
 20
1.07273
 10
1.87886
 20
1.05999
 10
1.86326
 20
1.04811
 10
1.84747
 20
1.03709
 10
1.8315
 20
1.02699
 10
1.81538
 20
1.01784
 10
1.79912
 20
1.0097
 10
1.78274
 20
1.00268
 10
1.76626
 20
0.99691
 10
1.74969
 20
0.99272
 10
1.733
 20
0.991
 10
1.71633
 20
0.98855
 10
1.70803
 20
0.9865
 10
1.69975
 20
0.98376
 10
1.69148
 20
0.98012
 10
1.68736
 20
0.97784
 10
1.68323
 20
0.97517
 10
1.67911
 20
0.97195
 10
1.67498
 20
0.96791
 10
1.67085
 20
0.96237
 10
1.66659
 20
0.9482
 10
1.66309
 20
0.88792
 10
1.65448
 20
0.82815
 10
1.65582
 20
0.81341
 10
1.65877
 20
0.80716
 10
1.66201
 20
0.80238
 10
1.6654
 20
0.7984
 10
1.66891
 20
0.79496
 10
1.6725
 20
0.79191
 10
1.67987
 20
0.78668
 10
1.68744
 20
0.78234
 10
1.69516
 20
0.77868
 10
1.711
 20
0.77295
 10
1.72701
 20
0.76793
 10
1.74242
 20
0.76052
 10
1.75742
 20
0.75157
 10
1.77206
 20
0.74142
 10
1.78636
 20
0.7302
 10
1.80033
 20
0.71801
 10
1.81396
 20
0.70492
 10
1.82724
 20
0.69098
 10
1.84015
 20
0.67622
 10
1.85268
 20
0.66067
 10
1.86482
 20
0.64436
 10
1.80272
 20
0.5033
 10
1.7825
 20
0.50124
 10
1.76257
 20
0.49998
 10
1.74296
 20
0.49953
 10
1.72371
 20
0.49991
 10
1.70485
 20
0.50112
 10
1.68643
 20
0.50319
 10
1.6685
 20
0.50617
 10
1.65112
 20
0.51011
 10
1.63439
 20
0.51513
 10
1.61852
 20
0.52148
 10
1.60401
 20
0.5299
 10
1.58909
 20
0.53771
 10
1.58117
 20
0.54094
 10
1.57285
 20
0.54359
 10
1.56402
 20
0.5455
 10
1.55935
 20
0.54608
 10
1.55444
 20
0.54634
 10
1.54921
 20
0.54616
 10
1.5435
 20
0.54532
 10
1.5369
 20
0.54327
 10
1.52512
 20
0.53431
 10
1.48686
 20
0.48759
 10
1.44476
 20
0.44431
 10
1.43719
 20
0.4316
 10
1.4359
 20
0.4248
 10
1.43571
 20
0.41903
 10
1.43612
 20
0.41382
 10
1.43693
 20
0.40897
 10
1.43804
 20
0.40439
 10
1.44093
 20
0.39583
 10
1.4445
 20
0.38787
 10
1.4486
 20
0.38037
 10
1.45805
 20
0.36642
 10
1.46805
 20
0.35295
 10
1.47616
 20
0.3379
 10
1.48303
 20
0.32185
 10
1.48891
 20
0.30503
 10
1.49389
 20
0.28754
 10
1.49803
 20
0.26947
 10
1.50136
 20
0.25087
 10
1.5039
 20
0.23179
 10
1.50567
 20
0.21225
 10
1.50667
 20
0.19231
 10
1.50691
 20
0.17198
 10
1.37375
 20
0.09436
 10
1.35618
 20
0.10458
 10
1.33932
 20
0.11528
 10
1.32319
 20
0.12644
 10
1.30784
 20
0.13806
 10
1.29329
 20
0.15012
 10
1.27961
 20
0.16263
 10
1.26685
 20
0.17558
 10
1.2551
 20
0.18898
 10
1.24452
 20
0.20287
 10
1.23542
 20
0.21734
 10
1.22862
 20
0.23268
 10
1.22115
 20
0.24777
 10
1.21664
 20
0.25504
 10
1.21147
 20
0.26207
 10
1.20545
 20
0.2688
 10
1.20201
 20
0.27202
 10
1.19819
 20
0.27512
 10
1.19385
 20
0.27804
 10
1.18874
 20
0.28072
 10
1.18219
 20
0.28295
 10
1.1674
 20
0.28262
 10
1.10899
 20
0.26731
 10
1.04948
 20
0.25704
 10
1.03588
 20
0.25121
 10
1.03085
 20
0.24647
 10
1.0273
 20
0.24191
 10
1.02457
 20
0.23745
 10
1.02237
 20
0.23305
 10
1.02058
 20
0.2287
 10
1.01789
 20
0.22007
 10
1.0161
 20
0.21153
 10
1.01501
 20
0.20305
 10
1.01445
 20
0.18622
 10
1.01463
 20
0.16944
 10
1.01234
 20
0.1525
 10
1.00846
 20
0.13547
 10
1.00333
 20
0.11841
 10
0.99708
 20
0.10134
 10
0.98981
 20
0.08429
 10
0.98157
 20
0.06728
 10
0.97241
 20
0.05034
 10
0.96236
 20
0.0335
 10
0.95145
 20
0.01678
 10
0.93969
 20
0.00019
 10
0.78634
 20
0.01566
 10
0.77813
 20
0.03426
 10
0.77078
 20
0.05283
 10
0.76429
 20
0.07134
 10
0.7587
 20
0.08976
 10
0.75402
 20
0.10807
 10
0.7503
 20
0.12623
 10
0.74759
 20
0.14421
 10
0.74597
 20
0.16195
 10
0.74557
 20
0.17941
 10
0.74671
 20
0.19647
 10
0.75023
 20
0.21287
 10
0.75305
 20
0.22948
 10
0.75368
 20
0.23801
 10
0.75363
 20
0.24673
 10
0.75271
 20
0.25572
 10
0.75183
 20
0.26034
 10
0.75055
 20
0.26509
 10
0.74877
 20
0.27001
 10
0.7462
 20
0.27518
 10
0.74221
 20
0.28083
 10
0.73005
 20
0.28926
 10
0.6738
 20
0.31121
 10
0.61962
 20
0.33787
 10
0.60519
 20
0.34115
 10
0.59833
 20
0.34028
 10
0.59279
 20
0.33867
 10
0.58795
 20
0.33667
 10
0.58359
 20
0.3344
 10
0.57958
 20
0.33193
 10
0.57233
 20
0.32654
 10
0.56587
 20
0.32068
 10
0.56
 20
0.31446
 10
0.54966
 20
0.30117
 10
0.53994
 20
0.28749
 10
0.52812
 20
0.27513
 10
0.51498
 20
0.26364
 10
0.5008
 20
0.25285
 10
0.48571
 20
0.24271
 10
0.4698
 20
0.23319
 10
0.45314
 20
0.22427
 10
0.43578
 20
0.21596
 10
0.41775
 20
0.20824
 10
0.39909
 20
0.20112
 10
0.37983
 20
0.19462
 10
0.26486
 20
0.29727
 10
0.26915
 20
0.31714
 10
0.27411
 20
0.33648
 10
0.27975
 20
0.35527
 10
0.28605
 20
0.37346
 10
0.29303
 20
0.39102
 10
0.30069
 20
0.4079
 10
0.30906
 20
0.42404
 10
0.31818
 20
0.43935
 10
0.32812
 20
0.4537
 10
0.33907
 20
0.46684
 10
0.35156
 20
0.47804
 10
0.36361
 20
0.48981
 10
0.36912
 20
0.49635
 10
0.37421
 20
0.50343
 10
0.37875
 20
0.51124
 10
0.38075
 20
0.51551
 10
0.38252
 20
0.5201
 10
0.38396
 20
0.52512
 10
0.38493
 20
0.53081
 10
0.38502
 20
0.53773
 10
0.38014
 20
0.5517
 10
0.34753
 20
0.60252
 0
CIRCLE
 8
a
 10
0.95894
 20
0.95894
 40
0.2
  0
ENDSEC
  0
EOF
